<svg xmlns="http://www.w3.org/2000/svg" version="1.1" xmlns:xlink="http://www.w3.org/1999/xlink" xmlns:svgjs="http://svgjs.com/svgjs" width="512" height="512" x="0" y="0" viewBox="0 0 32 32" style="enable-background:new 0 0 512 512" xml:space="preserve" class=""><g><g data-name="user, account, people, man"><path d="M23.737 16.181a1 1 0 1 0-1.406 1.422A8.938 8.938 0 0 1 25 24c0 1.223-3.506 3-9 3s-9-1.778-9-3.002a8.938 8.938 0 0 1 2.635-6.363 1 1 0 1 0-1.414-1.414A10.927 10.927 0 0 0 5 24c0 3.248 5.667 5 11 5s11-1.752 11-5a10.92 10.92 0 0 0-3.263-7.819z" fill="#00c4df" data-original="#000000"></path><path d="M16 17a7 7 0 1 0-7-7 7.008 7.008 0 0 0 7 7zm0-12a5 5 0 1 1-5 5 5.006 5.006 0 0 1 5-5z" fill="#00c4df" data-original="#000000"></path></g></g></svg>