<svg width="17" height="19" viewBox="0 0 17 19" fill="none" xmlns="http://www.w3.org/2000/svg">
<path fill-rule="evenodd" clip-rule="evenodd" d="M3.50334 1.09961C2.56801 1.09961 1.80334 1.85723 1.80334 2.79961V16.6696C1.80334 17.1786 2.38627 17.4537 2.77299 17.1476L2.77521 17.1458L8.38521 12.7558C8.56622 12.6142 8.82047 12.6142 9.00148 12.7558L14.6111 17.1455C15.0125 17.459 15.5788 17.1739 15.5734 16.675L15.5733 16.6696V2.79961C15.5733 1.86427 14.8157 1.09961 13.8733 1.09961H3.50334ZM0.803345 2.79961C0.803345 1.30199 2.01868 0.0996094 3.50334 0.0996094H13.8733C15.371 0.0996094 16.5733 1.31495 16.5733 2.79961V16.6671C16.5856 18.0065 15.0534 18.7597 13.9956 17.9337L13.9952 17.9334L8.69334 13.7845L3.3937 17.9316C3.39334 17.9319 3.39298 17.9322 3.39262 17.9325C2.33937 18.765 0.803345 18.0002 0.803345 16.6696V2.79961Z" fill="#00C4DF"/>
</svg>
