<svg id="Layer_1" viewBox="0 0 24 24" xmlns="http://www.w3.org/2000/svg" xmlns:xlink="http://www.w3.org/1999/xlink"><linearGradient id="Gradient_2_color" gradientUnits="userSpaceOnUse" x1="5.109" x2="18.891" y1="18.891" y2="5.109"><stop offset="0" stop-color="#5433ff"/><stop offset="1" stop-color="#20bdff"/></linearGradient><path d="m15.53 9.53-2.47 2.47 2.47 2.47c.293.293.293.768 0 1.061-.146.146-.338.22-.53.22s-.384-.073-.53-.22l-2.47-2.47-2.47 2.47c-.146.146-.338.22-.53.22s-.384-.073-.53-.22c-.293-.293-.293-.768 0-1.061l2.47-2.47-2.47-2.47c-.293-.293-.293-.768 0-1.061s.768-.293 1.061 0l2.47 2.47 2.47-2.47c.293-.293.768-.293 1.061 0s.293.768 0 1.061zm6.22 2.47c0 5.376-4.374 9.75-9.75 9.75s-9.75-4.374-9.75-9.75 4.374-9.75 9.75-9.75 9.75 4.374 9.75 9.75zm-1.5 0c0-4.549-3.701-8.25-8.25-8.25s-8.25 3.701-8.25 8.25 3.701 8.25 8.25 8.25 8.25-3.701 8.25-8.25z" fill="url(#Gradient_2_color)"/></svg>