<svg width="18" height="18" viewBox="0 0 18 18" fill="none" xmlns="http://www.w3.org/2000/svg">
<path d="M15.2867 14.9395C18.9567 11.2695 18.5167 5.04953 13.9767 1.98953C11.1467 0.0795329 7.3267 0.139533 4.5467 2.10953C0.706704 4.82953 -0.053296 9.86953 2.2667 13.5095L1.1867 16.1895C0.936704 16.7995 1.5467 17.4095 2.1667 17.1695L4.8467 16.0895C8.0867 18.1595 12.4467 17.7795 15.2867 14.9395Z" fill="#00C4DF"/>
<path fill-rule="evenodd" clip-rule="evenodd" d="M11.0167 7.42031C11.0167 7.08894 10.7481 6.82031 10.4167 6.82031H5.63671C5.30534 6.82031 5.03671 7.08894 5.03671 7.42031C5.03671 7.75168 5.30534 8.02031 5.63671 8.02031H10.4167C10.7481 8.02031 11.0167 7.75168 11.0167 7.42031Z" fill="#F2F2F2"/>
<path fill-rule="evenodd" clip-rule="evenodd" d="M13.5267 10.7104C13.5267 10.379 13.2581 10.1104 12.9267 10.1104H7.6367C7.30533 10.1104 7.0367 10.379 7.0367 10.7104C7.0367 11.0417 7.30533 11.3104 7.6367 11.3104H12.9267C13.2581 11.3104 13.5267 11.0417 13.5267 10.7104Z" fill="#F2F2F2"/>
</svg>
