<svg width="19" height="19" viewBox="0 0 19 19" fill="none" xmlns="http://www.w3.org/2000/svg">
<path fill-rule="evenodd" clip-rule="evenodd" d="M11.0167 8.42031C11.0167 8.08894 10.7481 7.82031 10.4167 7.82031H5.63671C5.30534 7.82031 5.03671 8.08894 5.03671 8.42031C5.03671 8.75168 5.30534 9.02031 5.63671 9.02031H10.4167C10.7481 9.02031 11.0167 8.75168 11.0167 8.42031Z" fill="#00C4DF"/>
<path fill-rule="evenodd" clip-rule="evenodd" d="M13.5267 11.7104C13.5267 11.379 13.2581 11.1104 12.9267 11.1104H7.6367C7.30533 11.1104 7.0367 11.379 7.0367 11.7104C7.0367 12.0417 7.30533 12.3104 7.6367 12.3104H12.9267C13.2581 12.3104 13.5267 12.0417 13.5267 11.7104Z" fill="#00C4DF"/>
<path fill-rule="evenodd" clip-rule="evenodd" d="M4.19989 2.62031C7.18179 0.507306 11.2734 0.44175 14.312 2.49239C19.1703 5.76691 19.6433 12.4319 15.711 16.3642C12.7452 19.33 8.23248 19.7918 4.79048 17.7595L2.38332 18.7295C1.29127 19.1522 0.175483 18.0793 0.630768 16.9642C0.631019 16.9636 0.63127 16.963 0.631522 16.9624L1.5973 14.5658C-0.686377 10.6898 0.182176 5.46627 4.19989 2.62031ZM13.6411 3.48726C11.0198 1.71813 7.47161 1.77262 4.89361 3.59947C1.3243 6.12774 0.618277 10.8073 2.77267 14.1874C2.87682 14.3508 2.89564 14.5545 2.82322 14.7342L1.7419 17.4175C1.72681 17.4543 1.72759 17.4807 1.73218 17.5009C1.73751 17.5242 1.75107 17.5508 1.77472 17.5744C1.82034 17.62 1.87984 17.6366 1.94752 17.6114L4.62244 16.5334C4.80237 16.4609 5.00626 16.4799 5.16974 16.5843C8.17712 18.5057 12.2255 18.1526 14.8624 15.5157C18.2702 12.1079 17.8628 6.33273 13.6411 3.48726Z" fill="#00C4DF"/>
</svg>
