<svg width="20" height="20" viewBox="0 0 20 20" fill="none" xmlns="http://www.w3.org/2000/svg">
<rect width="20" height="20" fill="#FF0000" fill-opacity="0.01"/>
<mask id="mask0_193_3526" style="mask-type:luminance" maskUnits="userSpaceOnUse" x="2" y="2" width="16" height="16">
<path d="M18 7.62708H17.992C17.9502 5.00449 15.9591 2.66699 13.5004 2.66699C12.0782 2.66699 10.8249 3.46174 10 4.62866C9.17511 3.46174 7.92178 2.66699 6.49956 2.66699C4.04089 2.66699 2.04978 5.00449 2.008 7.62708H2C2 7.64358 2.00267 7.65824 2.00267 7.67383C2.00267 7.68574 2 7.69766 2 7.71049C2 7.78383 2.01689 7.83974 2.02044 7.91033C2.24 14.5937 9.93689 17.3337 9.93689 17.3337C9.93689 17.3337 17.7467 14.5965 17.9778 7.92041C17.9822 7.84616 18 7.78749 18 7.71049C18 7.69766 17.9973 7.68574 17.9973 7.67383C17.9973 7.65641 18 7.64266 18 7.62708Z" fill="white"/>
</mask>
<g mask="url(#mask0_193_3526)">
<rect width="20" height="20" fill="#FF4974"/>
</g>
</svg>
