<svg width="25" height="24" viewBox="0 0 25 24" fill="none" xmlns="http://www.w3.org/2000/svg">
<path fill-rule="evenodd" clip-rule="evenodd" d="M15.2361 6.5C14.6679 6.5 14.1485 6.821 13.8944 7.32918L12.6584 9.80132C12.5542 10.0096 12.5 10.2393 12.5 10.4721V16C12.5 16.8284 13.1716 17.5 14 17.5H22C22.8284 17.5 23.5 16.8284 23.5 16V10.4721C23.5 10.2393 23.4458 10.0096 23.3416 9.80132L22.1056 7.32918C21.8515 6.821 21.3321 6.5 20.7639 6.5H15.2361ZM13 6.88197C13.4235 6.03501 14.2891 5.5 15.2361 5.5H20.7639C21.7109 5.5 22.5765 6.03501 23 6.88197L24.2361 9.3541C24.4096 9.70124 24.5 10.084 24.5 10.4721V16C24.5 17.3807 23.3807 18.5 22 18.5H14C12.6193 18.5 11.5 17.3807 11.5 16V10.4721C11.5 10.084 11.5904 9.70124 11.7639 9.3541L13 6.88197Z" fill="#00C4DF"/>
<path fill-rule="evenodd" clip-rule="evenodd" d="M24 10.5L12 10.5V9.5L24 9.5V10.5Z" fill="#00C4DF"/>
<path fill-rule="evenodd" clip-rule="evenodd" d="M18.5 6V10H17.5V6H18.5Z" fill="#00C4DF"/>
<path fill-rule="evenodd" clip-rule="evenodd" d="M0.5 8C0.5 7.72386 0.723858 7.5 1 7.5H9C9.27614 7.5 9.5 7.72386 9.5 8C9.5 8.27614 9.27614 8.5 9 8.5H1C0.723858 8.5 0.5 8.27614 0.5 8Z" fill="#00C4DF"/>
<path fill-rule="evenodd" clip-rule="evenodd" d="M0.5 12C0.5 11.7239 0.723858 11.5 1 11.5H9C9.27614 11.5 9.5 11.7239 9.5 12C9.5 12.2761 9.27614 12.5 9 12.5H1C0.723858 12.5 0.5 12.2761 0.5 12Z" fill="#00C4DF"/>
<path fill-rule="evenodd" clip-rule="evenodd" d="M0.5 16C0.5 15.7239 0.723858 15.5 1 15.5H9C9.27614 15.5 9.5 15.7239 9.5 16C9.5 16.2761 9.27614 16.5 9 16.5H1C0.723858 16.5 0.5 16.2761 0.5 16Z" fill="#00C4DF"/>
</svg>
