<svg width="24" height="24" viewBox="0 0 24 24" fill="none" xmlns="http://www.w3.org/2000/svg">
<path fill-rule="evenodd" clip-rule="evenodd" d="M5.67305 5.04649C5.28803 4.92617 4.92635 5.28785 5.04667 5.67287L8.79287 17.6607C8.92312 18.0775 9.48758 18.1388 9.70423 17.7596L12.4306 12.9885C12.5634 12.756 12.7562 12.5633 12.9887 12.4304L17.7598 9.70405C18.139 9.4874 18.0777 8.92293 17.6609 8.79269L5.67305 5.04649ZM4.09219 5.97114C3.73124 4.81608 4.81627 3.73105 5.97133 4.09201L17.9592 7.83821C19.2095 8.22895 19.3934 9.92234 18.2559 10.5723L13.4849 13.2986C13.4073 13.3429 13.3431 13.4072 13.2988 13.4847L10.5725 18.2558C9.92252 19.3932 8.22914 19.2094 7.83839 17.959L4.09219 5.97114Z" fill="#00C4DF"/>
</svg>
