<svg xmlns="http://www.w3.org/2000/svg" version="1.1" xmlns:xlink="http://www.w3.org/1999/xlink" xmlns:svgjs="http://svgjs.com/svgjs" width="512" height="512" x="0" y="0" viewBox="0 0 682.667 682.667" style="enable-background:new 0 0 512 512" xml:space="preserve" class=""><g><defs><clipPath id="a" clipPathUnits="userSpaceOnUse"><path d="M0 512h512V0H0Z" fill="#00c4df" data-original="#000000"></path></clipPath></defs><g clip-path="url(#a)" transform="matrix(1.33333 0 0 -1.33333 0 682.667)"><path d="M0 0c71.358-3.844 125.297-21.563 125.297-42.841 0-24.088-69.123-43.615-154.39-43.615-85.268 0-154.39 19.527-154.39 43.615 0 21.278 53.938 38.997 125.296 42.841" style="stroke-width:30;stroke-linecap:round;stroke-linejoin:round;stroke-miterlimit:10;stroke-dasharray:none;stroke-opacity:1" transform="translate(285.093 162.987)" fill="none" stroke="#00c4df" stroke-width="30" stroke-linecap="round" stroke-linejoin="round" stroke-miterlimit="10" stroke-dasharray="none" stroke-opacity="" data-original="#000000" class=""></path><path d="M0 0c-22.75-12.498-35.894-27.228-35.894-43.003 0-45.221 107.9-81.879 241-81.879 133.101 0 241 36.658 241 81.879 0 15.775-13.143 30.505-35.893 43.003" style="stroke-width:30;stroke-linecap:round;stroke-linejoin:round;stroke-miterlimit:10;stroke-dasharray:none;stroke-opacity:1" transform="translate(50.894 139.882)" fill="none" stroke="#00c4df" stroke-width="30" stroke-linecap="round" stroke-linejoin="round" stroke-miterlimit="10" stroke-dasharray="none" stroke-opacity="" data-original="#000000" class=""></path><path d="M0 0c-22.669 0-41.046 18.377-41.046 41.045 0 22.669 18.377 41.046 41.046 41.046s41.046-18.377 41.046-41.046C41.046 18.377 22.669 0 0 0Zm0 155.911c-68.727 0-124.441-55.713-124.441-124.438 0-47.721 69.724-167.798 104.791-225.172 8.984-14.698 30.316-14.698 39.3 0C54.717-136.325 124.441-16.248 124.441 31.473c0 68.725-55.714 124.438-124.441 124.438z" style="stroke-width:30;stroke-linecap:round;stroke-linejoin:round;stroke-miterlimit:10;stroke-dasharray:none;stroke-opacity:1" transform="translate(256 341.089)" fill="none" stroke="#00c4df" stroke-width="30" stroke-linecap="round" stroke-linejoin="round" stroke-miterlimit="10" stroke-dasharray="none" stroke-opacity="" data-original="#000000" class=""></path></g></g></svg>