<svg width="41" height="41" viewBox="0 0 41 41" fill="none" xmlns="http://www.w3.org/2000/svg">
<path d="M7.375 24.7869C3.9037 26.3183 1.75 28.4522 1.75 30.8125C1.75 35.4724 10.1447 39.25 20.5 39.25C30.8553 39.25 39.25 35.4724 39.25 30.8125C39.25 28.4522 37.0963 26.3183 33.625 24.7869M31.75 13C31.75 20.6195 23.3125 24.25 20.5 29.875C17.6875 24.25 9.25 20.6195 9.25 13C9.25 6.7868 14.2868 1.75 20.5 1.75C26.7132 1.75 31.75 6.7868 31.75 13ZM22.375 13C22.375 14.0355 21.5355 14.875 20.5 14.875C19.4645 14.875 18.625 14.0355 18.625 13C18.625 11.9645 19.4645 11.125 20.5 11.125C21.5355 11.125 22.375 11.9645 22.375 13Z" stroke="#ADADAD" stroke-width="2.4" stroke-linecap="round" stroke-linejoin="round"/>
</svg>
