<svg width="32" height="32" viewBox="0 0 32 32" fill="none" xmlns="http://www.w3.org/2000/svg">
<path d="M6.66669 19.0486C4.1982 20.1375 2.66669 21.655 2.66669 23.3334C2.66669 26.6471 8.63622 29.3334 16 29.3334C23.3638 29.3334 29.3334 26.6471 29.3334 23.3334C29.3334 21.655 27.8018 20.1375 25.3334 19.0486M24 10.6667C24 16.085 18 18.6667 16 22.6667C14 18.6667 8.00002 16.085 8.00002 10.6667C8.00002 6.24847 11.5817 2.66675 16 2.66675C20.4183 2.66675 24 6.24847 24 10.6667ZM17.3334 10.6667C17.3334 11.4031 16.7364 12.0001 16 12.0001C15.2636 12.0001 14.6667 11.4031 14.6667 10.6667C14.6667 9.93037 15.2636 9.33341 16 9.33341C16.7364 9.33341 17.3334 9.93037 17.3334 10.6667Z" stroke="#ADADAD" stroke-width="2" stroke-linecap="round" stroke-linejoin="round"/>
</svg>
