<svg width="24" height="25" viewBox="0 0 24 25" fill="none" xmlns="http://www.w3.org/2000/svg">
<path fill-rule="evenodd" clip-rule="evenodd" d="M4 6.88027C4 6.5489 4.26863 6.28027 4.6 6.28027H14.55C14.8814 6.28027 15.15 6.5489 15.15 6.88027C15.15 7.21164 14.8814 7.48027 14.55 7.48027H4.6C4.26863 7.48027 4 7.21164 4 6.88027Z" fill="#121212"/>
<path fill-rule="evenodd" clip-rule="evenodd" d="M4 12.5902C4 12.2589 4.26863 11.9902 4.6 11.9902H19.76C20.0914 11.9902 20.36 12.2589 20.36 12.5902C20.36 12.9216 20.0914 13.1902 19.76 13.1902H4.6C4.26863 13.1902 4 12.9216 4 12.5902Z" fill="#00C4DF"/>
<path fill-rule="evenodd" clip-rule="evenodd" d="M4 18.31C4 17.9786 4.26863 17.71 4.6 17.71H19.76C20.0914 17.71 20.36 17.9786 20.36 18.31C20.36 18.6413 20.0914 18.91 19.76 18.91H4.6C4.26863 18.91 4 18.6413 4 18.31Z" fill="#121212"/>
</svg>
