<svg width="24" height="25" viewBox="0 0 24 25" fill="none" xmlns="http://www.w3.org/2000/svg">
<path fill-rule="evenodd" clip-rule="evenodd" d="M10.5906 4.24043C6.92866 4.24043 3.96003 7.20905 3.96003 10.871C3.96003 14.533 6.92866 17.5016 10.5906 17.5016C14.2526 17.5016 17.2212 14.533 17.2212 10.871C17.2212 7.20905 14.2526 4.24043 10.5906 4.24043ZM2.66003 10.871C2.66003 6.49108 6.21069 2.94043 10.5906 2.94043C14.9706 2.94043 18.5212 6.49108 18.5212 10.871C18.5212 15.251 14.9706 18.8016 10.5906 18.8016C6.21069 18.8016 2.66003 15.251 2.66003 10.871Z" fill="#121212"/>
<path fill-rule="evenodd" clip-rule="evenodd" d="M15.2831 15.5634C15.5369 15.3096 15.9485 15.3096 16.2023 15.5634L20.4601 19.8212C20.7139 20.075 20.7139 20.4866 20.4601 20.7404C20.2062 20.9943 19.7947 20.9943 19.5408 20.7404L15.2831 16.4827C15.0292 16.2288 15.0292 15.8173 15.2831 15.5634Z" fill="#00C4DF"/>
</svg>
