<svg xmlns="http://www.w3.org/2000/svg" version="1.1" xmlns:xlink="http://www.w3.org/1999/xlink" xmlns:svgjs="http://svgjs.com/svgjs" width="512" height="512" x="0" y="0" viewBox="0 0 32 32" style="enable-background:new 0 0 512 512" xml:space="preserve" class=""><g><path d="M21.82 30H10.18A5 5 0 0 1 5 25.24V19a1 1 0 0 1 2 0v6.24A3 3 0 0 0 10.18 28h11.64A3 3 0 0 0 25 25.24V19a1 1 0 0 1 2 0v6.24A5 5 0 0 1 21.82 30zm7.89-13.29a1 1 0 0 0 0-1.42l-13-13a1 1 0 0 0-1.42 0l-13 13a1 1 0 0 0 1.42 1.42L16 4.41l12.29 12.3a1 1 0 0 0 1.42 0z" data-name="9-Home" fill="#00c4df" data-original="#000000" class=""></path></g></svg>