<svg width="16" height="15" viewBox="0 0 16 15" fill="none" xmlns="http://www.w3.org/2000/svg">
<path fill-rule="evenodd" clip-rule="evenodd" d="M7.83 6.43961C9.1113 6.43961 10.15 5.40091 10.15 4.11961C10.15 2.83831 9.1113 1.79961 7.83 1.79961C6.5487 1.79961 5.51 2.83831 5.51 4.11961C5.51 5.40091 6.5487 6.43961 7.83 6.43961ZM11.35 4.11961C11.35 6.06365 9.77404 7.63961 7.83 7.63961C5.88596 7.63961 4.31 6.06365 4.31 4.11961C4.31 2.17557 5.88596 0.599609 7.83 0.599609C9.77404 0.599609 11.35 2.17557 11.35 4.11961Z" fill="#00C4DF"/>
<path fill-rule="evenodd" clip-rule="evenodd" d="M13.7578 14.5602H15.07C13.92 11.6902 11.12 9.66016 7.84 9.66016C4.56 9.66016 1.75 11.6902 0.610001 14.5602H1.92061C2.98563 12.3699 5.23867 10.8602 7.84 10.8602C10.4381 10.8602 12.6843 12.367 13.7578 14.5602Z" fill="#00C4DF"/>
</svg>
