<svg width="129" height="65" viewBox="0 0 129 65" fill="none" xmlns="http://www.w3.org/2000/svg">
<path d="M20.92 26.4C22.5467 26.88 23.8 27.72 24.68 28.92C25.5867 30.0933 26.04 31.5467 26.04 33.28C26.04 35.6533 25.16 37.5333 23.4 38.92C21.6667 40.3067 19.2667 41 16.2 41H5.72C4.78667 41 4.06667 40.7467 3.56 40.24C3.05333 39.7333 2.8 39.0133 2.8 38.08V15.72C2.8 14.7867 3.05333 14.0667 3.56 13.56C4.06667 13.0533 4.78667 12.8 5.72 12.8H15.8C18.7333 12.8 21.0533 13.4533 22.76 14.76C24.4933 16.0667 25.36 17.8533 25.36 20.12C25.36 21.5867 24.96 22.88 24.16 24C23.3867 25.0933 22.3067 25.8933 20.92 26.4ZM8.88 24.28H14.76C16.36 24.28 17.5333 24.0133 18.28 23.48C19.0533 22.92 19.44 22.08 19.44 20.96C19.44 19.7867 19.0533 18.9333 18.28 18.4C17.5333 17.84 16.36 17.56 14.76 17.56H8.88V24.28ZM15.48 36.24C17.1333 36.24 18.3333 35.96 19.08 35.4C19.8267 34.84 20.2 33.9333 20.2 32.68C20.2 31.4267 19.8267 30.5067 19.08 29.92C18.3333 29.3333 17.1333 29.04 15.48 29.04H8.88V36.24H15.48ZM55.7663 41.24C54.8863 41.24 54.1529 41 53.5663 40.52C53.0063 40.04 52.7263 39.3333 52.7263 38.4V15.44C52.7263 14.5067 53.0063 13.8 53.5663 13.32C54.1529 12.84 54.8863 12.6 55.7663 12.6C56.6196 12.6 57.3263 12.84 57.8863 13.32C58.4729 13.8 58.7663 14.5067 58.7663 15.44V38.4C58.7663 39.3333 58.4729 40.04 57.8863 40.52C57.3263 41 56.6196 41.24 55.7663 41.24ZM66.9303 41.24C66.0503 41.24 65.317 41 64.7303 40.52C64.1703 40.04 63.8903 39.3333 63.8903 38.4V23.8C63.8903 22.8667 64.1836 22.16 64.7703 21.68C65.357 21.2 66.077 20.96 66.9303 20.96C67.7836 20.96 68.4903 21.2 69.0503 21.68C69.637 22.16 69.9303 22.8667 69.9303 23.8V38.4C69.9303 39.3333 69.637 40.04 69.0503 40.52C68.4903 41 67.7836 41.24 66.9303 41.24ZM66.9303 17.76C65.8636 17.76 65.0236 17.4933 64.4103 16.96C63.797 16.4 63.4903 15.6533 63.4903 14.72C63.4903 13.7867 63.797 13.0533 64.4103 12.52C65.0236 11.9867 65.8636 11.72 66.9303 11.72C67.9703 11.72 68.797 12 69.4103 12.56C70.0503 13.0933 70.3703 13.8133 70.3703 14.72C70.3703 15.6533 70.0636 16.4 69.4503 16.96C68.837 17.4933 67.997 17.76 66.9303 17.76ZM85.1744 41.2C84.241 41.2 83.481 40.92 82.8944 40.36C82.3344 39.8 82.0544 39.0533 82.0544 38.12V17.88H75.5744C73.601 17.88 72.6144 17.0267 72.6144 15.32C72.6144 13.64 73.601 12.8 75.5744 12.8H94.7744C96.7477 12.8 97.7344 13.64 97.7344 15.32C97.7344 17.0267 96.7477 17.88 94.7744 17.88H88.2944V38.12C88.2944 39.0533 88.0144 39.8 87.4544 40.36C86.8944 40.92 86.1344 41.2 85.1744 41.2ZM106.074 20.88C108.954 20.88 111.087 21.5867 112.474 23C113.861 24.3867 114.554 26.52 114.554 29.4V38.44C114.554 39.32 114.301 40.0133 113.794 40.52C113.287 41 112.581 41.24 111.674 41.24C110.821 41.24 110.127 40.9867 109.594 40.48C109.087 39.9467 108.834 39.2667 108.834 38.44V38.16C108.434 39.1467 107.767 39.92 106.834 40.48C105.901 41.04 104.807 41.32 103.554 41.32C102.221 41.32 101.007 41.0533 99.9141 40.52C98.8474 39.9867 97.9941 39.24 97.3541 38.28C96.7407 37.32 96.4341 36.2533 96.4341 35.08C96.4341 33.64 96.7941 32.5067 97.5141 31.68C98.2607 30.8533 99.4474 30.2533 101.074 29.88C102.701 29.5067 104.927 29.32 107.754 29.32H108.794V28.6C108.794 27.48 108.541 26.6667 108.034 26.16C107.554 25.6533 106.741 25.4 105.594 25.4C104.447 25.4 102.794 25.8 100.634 26.6C100.021 26.8933 99.5007 27.04 99.0741 27.04C98.4874 27.04 98.0207 26.84 97.6741 26.44C97.3274 26.0133 97.1541 25.4667 97.1541 24.8C97.1541 24.2667 97.2741 23.8267 97.5141 23.48C97.7541 23.1333 98.1407 22.8133 98.6741 22.52C99.6074 22.0133 100.741 21.6133 102.074 21.32C103.434 21.0267 104.767 20.88 106.074 20.88ZM104.874 37.16C106.047 37.16 106.994 36.7733 107.714 36C108.434 35.2 108.794 34.1733 108.794 32.92V32.24H108.114C105.954 32.24 104.434 32.4133 103.554 32.76C102.701 33.1067 102.274 33.7333 102.274 34.64C102.274 35.3867 102.514 36 102.994 36.48C103.501 36.9333 104.127 37.16 104.874 37.16Z" fill="#121212"/>
<path d="M33.4381 41.24C32.5581 41.24 31.8248 41 31.2381 40.52C30.6781 40.04 30.3981 39.3333 30.3981 38.4V23.8C30.3981 22.8667 30.6915 22.16 31.2781 21.68C31.8648 21.2 32.5848 20.96 33.4381 20.96C34.2915 20.96 34.9981 21.2 35.5581 21.68C36.1448 22.16 36.4381 22.8667 36.4381 23.8V38.4C36.4381 39.3333 36.1448 40.04 35.5581 40.52C34.9981 41 34.2915 41.24 33.4381 41.24ZM33.4381 17.76C32.3715 17.76 31.5315 17.4933 30.9181 16.96C30.3048 16.4 29.9981 15.6533 29.9981 14.72C29.9981 13.7867 30.3048 13.0533 30.9181 12.52C31.5315 11.9867 32.3715 11.72 33.4381 11.72C34.4781 11.72 35.3048 12 35.9181 12.56C36.5581 13.0933 36.8781 13.8133 36.8781 14.72C36.8781 15.6533 36.5715 16.4 35.9581 16.96C35.3448 17.4933 34.5048 17.76 33.4381 17.76Z" fill="#00C4DF"/>
<path d="M44.6022 41.24C43.7222 41.24 42.9889 41 42.4022 40.52C41.8422 40.04 41.5622 39.3333 41.5622 38.4V15.44C41.5622 14.5067 41.8422 13.8 42.4022 13.32C42.9889 12.84 43.7222 12.6 44.6022 12.6C45.4555 12.6 46.1622 12.84 46.7222 13.32C47.3089 13.8 47.6022 14.5067 47.6022 15.44V38.4C47.6022 39.3333 47.3089 40.04 46.7222 40.52C46.1622 41 45.4555 41.24 44.6022 41.24Z" fill="#0067DF"/>
<path d="M9.448 50.948C9.616 50.948 9.73733 51.0087 9.812 51.13C9.896 51.2513 9.938 51.3913 9.938 51.55C9.938 51.7087 9.896 51.8487 9.812 51.97C9.73733 52.0913 9.616 52.152 9.448 52.152H7.208V53.034C7.208 53.5007 7.28267 53.902 7.432 54.238C7.59067 54.5647 7.838 54.8727 8.174 55.162C8.482 55.4233 8.776 55.666 9.056 55.89C9.34533 56.114 9.59733 56.3053 9.812 56.464C9.97067 56.576 10.05 56.7113 10.05 56.87C10.0593 57.0287 10.0127 57.178 9.91 57.318C9.81667 57.4393 9.686 57.528 9.518 57.584C9.35933 57.6307 9.20067 57.5933 9.042 57.472C8.85533 57.332 8.636 57.164 8.384 56.968C8.132 56.7627 7.85667 56.5387 7.558 56.296C7.20333 56.0067 6.95133 55.7733 6.802 55.596C6.662 55.4093 6.57333 55.2367 6.536 55.078H6.522C6.48467 55.246 6.38667 55.4327 6.228 55.638C6.07867 55.834 5.82667 56.0767 5.472 56.366C5.17333 56.6087 4.87933 56.842 4.59 57.066C4.30067 57.29 4.02067 57.5 3.75 57.696C3.59133 57.8173 3.428 57.8547 3.26 57.808C3.10133 57.752 2.98 57.6633 2.896 57.542C2.79333 57.402 2.742 57.248 2.742 57.08C2.742 56.912 2.826 56.7673 2.994 56.646C3.29267 56.422 3.596 56.1933 3.904 55.96C4.22133 55.7173 4.534 55.4607 4.842 55.19C5.178 54.9007 5.42067 54.5927 5.57 54.266C5.72867 53.9393 5.808 53.5427 5.808 53.076V52.152H3.47C3.29267 52.152 3.162 52.0913 3.078 51.97C3.00333 51.8487 2.966 51.7087 2.966 51.55C2.966 51.3913 3.00333 51.2513 3.078 51.13C3.162 51.0087 3.29267 50.948 3.47 50.948H9.448ZM12.444 50.108C12.6213 50.108 12.78 50.1547 12.92 50.248C13.06 50.3413 13.13 50.4907 13.13 50.696V58.984C13.13 59.1893 13.06 59.3387 12.92 59.432C12.78 59.5253 12.6213 59.572 12.444 59.572C12.2573 59.572 12.094 59.5253 11.954 59.432C11.814 59.3387 11.744 59.1893 11.744 58.984V54.742H9.728C9.55067 54.742 9.42 54.6813 9.336 54.56C9.26133 54.4387 9.224 54.2987 9.224 54.14C9.224 53.972 9.26133 53.832 9.336 53.72C9.42 53.5987 9.55067 53.538 9.728 53.538H11.744V50.696C11.744 50.4907 11.814 50.3413 11.954 50.248C12.094 50.1547 12.2573 50.108 12.444 50.108ZM5.612 58.396C5.78933 58.396 5.948 58.4427 6.088 58.536C6.23733 58.6293 6.312 58.7787 6.312 58.984V61.35C6.312 61.4527 6.33067 61.5227 6.368 61.56C6.41467 61.6067 6.494 61.63 6.606 61.63H12.962C13.1393 61.63 13.2653 61.6907 13.34 61.812C13.424 61.9333 13.466 62.078 13.466 62.246C13.466 62.4047 13.424 62.5447 13.34 62.666C13.2653 62.7873 13.1393 62.848 12.962 62.848H5.976C5.56533 62.848 5.28067 62.7733 5.122 62.624C4.97267 62.4747 4.898 62.1993 4.898 61.798V58.984C4.898 58.7787 4.968 58.6293 5.108 58.536C5.25733 58.4427 5.42533 58.396 5.612 58.396ZM21.4342 51.06C21.8449 51.06 22.1249 51.1347 22.2742 51.284C22.4329 51.4333 22.5122 51.7087 22.5122 52.11V53.692C22.5122 54.084 22.4889 54.4387 22.4422 54.756C22.3955 55.064 22.3069 55.358 22.1762 55.638C22.0455 55.918 21.8635 56.1933 21.6302 56.464C21.3969 56.7253 21.0935 57.0053 20.7202 57.304C20.3562 57.5933 19.9129 57.9107 19.3902 58.256C18.8675 58.6013 18.2469 58.9933 17.5282 59.432C17.3695 59.5253 17.2109 59.544 17.0522 59.488C16.8935 59.4227 16.7675 59.3247 16.6742 59.194C16.5809 59.0633 16.5342 58.9093 16.5342 58.732C16.5435 58.5547 16.6275 58.4147 16.7862 58.312C17.4489 57.9107 18.0135 57.5607 18.4802 57.262C18.9562 56.954 19.3529 56.6787 19.6702 56.436C19.9875 56.184 20.2395 55.9553 20.4262 55.75C20.6222 55.5353 20.7715 55.3253 20.8742 55.12C20.9769 54.9053 21.0422 54.6813 21.0702 54.448C21.0982 54.2053 21.1122 53.9347 21.1122 53.636V52.558C21.1122 52.4553 21.0889 52.3853 21.0422 52.348C21.0049 52.3013 20.9302 52.278 20.8182 52.278H17.1782C17.0009 52.278 16.8702 52.2173 16.7862 52.096C16.7115 51.9747 16.6742 51.8347 16.6742 51.676C16.6742 51.508 16.7115 51.3633 16.7862 51.242C16.8702 51.1207 17.0009 51.06 17.1782 51.06H21.4342ZM25.7742 50.108C25.9609 50.108 26.1242 50.1547 26.2642 50.248C26.4135 50.3413 26.4882 50.4907 26.4882 50.696V61.616C26.4882 61.8213 26.4135 61.9707 26.2642 62.064C26.1242 62.1573 25.9609 62.204 25.7742 62.204C25.5969 62.204 25.4335 62.1573 25.2842 62.064C25.1442 61.9707 25.0742 61.8213 25.0742 61.616V50.696C25.0742 50.4907 25.1442 50.3413 25.2842 50.248C25.4335 50.1547 25.5969 50.108 25.7742 50.108ZM33.2524 50.08C33.439 50.08 33.6024 50.1267 33.7424 50.22C33.8824 50.3133 33.9524 50.4627 33.9524 50.668V51.844H36.3324C36.5004 51.844 36.6217 51.9047 36.6964 52.026C36.7804 52.1473 36.8224 52.2873 36.8224 52.446C36.8224 52.6047 36.7804 52.7447 36.6964 52.866C36.6217 52.9873 36.5004 53.048 36.3324 53.048H33.9524V53.916C33.9524 54.2147 33.9664 54.476 33.9944 54.7C34.0317 54.924 34.0877 55.134 34.1624 55.33C34.237 55.526 34.3397 55.7173 34.4704 55.904C34.6104 56.0907 34.7877 56.2867 35.0024 56.492C35.301 56.7907 35.5904 57.0707 35.8704 57.332C36.1504 57.5933 36.4117 57.8267 36.6544 58.032C36.785 58.1533 36.8364 58.3027 36.8084 58.48C36.7897 58.648 36.7244 58.788 36.6124 58.9C36.5004 59.012 36.365 59.082 36.2064 59.11C36.0477 59.138 35.903 59.0913 35.7724 58.97C35.567 58.7927 35.343 58.5873 35.1004 58.354C34.8577 58.1113 34.5917 57.85 34.3024 57.57C34.1064 57.374 33.943 57.206 33.8124 57.066C33.6817 56.9167 33.579 56.7907 33.5044 56.688C33.4297 56.5853 33.3737 56.4967 33.3364 56.422C33.299 56.3473 33.2757 56.2727 33.2664 56.198H33.2524C33.2337 56.282 33.2057 56.366 33.1684 56.45C33.1404 56.5247 33.089 56.618 33.0144 56.73C32.9397 56.8327 32.837 56.9587 32.7064 57.108C32.585 57.248 32.4217 57.416 32.2164 57.612C31.9364 57.8827 31.661 58.1487 31.3904 58.41C31.129 58.662 30.849 58.914 30.5504 59.166C30.401 59.2873 30.2424 59.3293 30.0744 59.292C29.9064 59.2453 29.771 59.1613 29.6684 59.04C29.5564 58.9093 29.4957 58.7647 29.4864 58.606C29.4864 58.438 29.5564 58.2933 29.6964 58.172C30.023 57.9013 30.331 57.6307 30.6204 57.36C30.9097 57.08 31.2037 56.7907 31.5024 56.492C31.7077 56.2867 31.8804 56.0907 32.0204 55.904C32.1604 55.7173 32.2677 55.526 32.3424 55.33C32.417 55.134 32.4684 54.924 32.4964 54.7C32.5337 54.476 32.5524 54.2147 32.5524 53.916V53.048H30.1024C29.925 53.048 29.7944 52.9873 29.7104 52.866C29.6357 52.7447 29.5984 52.6047 29.5984 52.446C29.5984 52.2873 29.6357 52.1473 29.7104 52.026C29.7944 51.9047 29.925 51.844 30.1024 51.844H32.5524V50.668C32.5524 50.4627 32.6224 50.3133 32.7624 50.22C32.9117 50.1267 33.075 50.08 33.2524 50.08ZM38.6284 50.108C38.815 50.108 38.9784 50.1547 39.1184 50.248C39.2584 50.3413 39.3284 50.4907 39.3284 50.696V54.336H40.8684C41.055 54.336 41.1857 54.3967 41.2604 54.518C41.3444 54.63 41.3864 54.77 41.3864 54.938C41.3864 55.106 41.3444 55.2507 41.2604 55.372C41.1857 55.4933 41.055 55.554 40.8684 55.554H39.3284V61.616C39.3284 61.8213 39.2584 61.9707 39.1184 62.064C38.9784 62.1573 38.815 62.204 38.6284 62.204C38.4417 62.204 38.2784 62.1573 38.1384 62.064C37.9984 61.9707 37.9284 61.8213 37.9284 61.616V50.696C37.9284 50.4907 37.9984 50.3413 38.1384 50.248C38.2784 50.1547 38.4417 50.108 38.6284 50.108ZM53.9746 50.948C54.1426 50.948 54.2639 51.0087 54.3386 51.13C54.4226 51.2513 54.4646 51.3913 54.4646 51.55C54.4646 51.7087 54.4226 51.8487 54.3386 51.97C54.2639 52.0913 54.1426 52.152 53.9746 52.152H51.7346V53.034C51.7346 53.5007 51.8092 53.902 51.9586 54.238C52.1172 54.5647 52.3646 54.8727 52.7006 55.162C53.0086 55.4233 53.3026 55.666 53.5826 55.89C53.8719 56.114 54.1239 56.3053 54.3386 56.464C54.4972 56.576 54.5766 56.7113 54.5766 56.87C54.5859 57.0287 54.5392 57.178 54.4366 57.318C54.3432 57.4393 54.2126 57.528 54.0446 57.584C53.8859 57.6307 53.7272 57.5933 53.5686 57.472C53.3819 57.332 53.1626 57.164 52.9106 56.968C52.6586 56.7627 52.3832 56.5387 52.0846 56.296C51.7299 56.0067 51.4779 55.7733 51.3286 55.596C51.1886 55.4093 51.0999 55.2367 51.0626 55.078H51.0486C51.0112 55.246 50.9132 55.4327 50.7546 55.638C50.6052 55.834 50.3532 56.0767 49.9986 56.366C49.6999 56.6087 49.4059 56.842 49.1166 57.066C48.8272 57.29 48.5472 57.5 48.2766 57.696C48.1179 57.8173 47.9546 57.8547 47.7866 57.808C47.6279 57.752 47.5066 57.6633 47.4226 57.542C47.3199 57.402 47.2686 57.248 47.2686 57.08C47.2686 56.912 47.3526 56.7673 47.5206 56.646C47.8192 56.422 48.1226 56.1933 48.4306 55.96C48.7479 55.7173 49.0606 55.4607 49.3686 55.19C49.7046 54.9007 49.9472 54.5927 50.0966 54.266C50.2552 53.9393 50.3346 53.5427 50.3346 53.076V52.152H47.9966C47.8192 52.152 47.6886 52.0913 47.6046 51.97C47.5299 51.8487 47.4926 51.7087 47.4926 51.55C47.4926 51.3913 47.5299 51.2513 47.6046 51.13C47.6886 51.0087 47.8192 50.948 47.9966 50.948H53.9746ZM56.9706 50.108C57.1479 50.108 57.3066 50.1547 57.4466 50.248C57.5866 50.3413 57.6566 50.4907 57.6566 50.696V58.984C57.6566 59.1893 57.5866 59.3387 57.4466 59.432C57.3066 59.5253 57.1479 59.572 56.9706 59.572C56.7839 59.572 56.6206 59.5253 56.4806 59.432C56.3406 59.3387 56.2706 59.1893 56.2706 58.984V54.742H54.2546C54.0772 54.742 53.9466 54.6813 53.8626 54.56C53.7879 54.4387 53.7506 54.2987 53.7506 54.14C53.7506 53.972 53.7879 53.832 53.8626 53.72C53.9466 53.5987 54.0772 53.538 54.2546 53.538H56.2706V50.696C56.2706 50.4907 56.3406 50.3413 56.4806 50.248C56.6206 50.1547 56.7839 50.108 56.9706 50.108ZM50.1386 58.396C50.3159 58.396 50.4746 58.4427 50.6146 58.536C50.7639 58.6293 50.8386 58.7787 50.8386 58.984V61.35C50.8386 61.4527 50.8572 61.5227 50.8946 61.56C50.9412 61.6067 51.0206 61.63 51.1326 61.63H57.4886C57.6659 61.63 57.7919 61.6907 57.8666 61.812C57.9506 61.9333 57.9926 62.078 57.9926 62.246C57.9926 62.4047 57.9506 62.5447 57.8666 62.666C57.7919 62.7873 57.6659 62.848 57.4886 62.848H50.5026C50.0919 62.848 49.8072 62.7733 49.6486 62.624C49.4992 62.4747 49.4246 62.1993 49.4246 61.798V58.984C49.4246 58.7787 49.4946 58.6293 49.6346 58.536C49.7839 58.4427 49.9519 58.396 50.1386 58.396ZM69.5308 50.598C69.9414 50.598 70.2214 50.6727 70.3708 50.822C70.5294 50.9713 70.6088 51.2467 70.6088 51.648V54.294C70.6088 54.6953 70.5294 54.9707 70.3708 55.12C70.2214 55.2693 69.9414 55.344 69.5308 55.344H63.1468C62.7361 55.344 62.4561 55.2693 62.3068 55.12C62.1574 54.9707 62.0828 54.6953 62.0828 54.294V51.648C62.0828 51.2467 62.1574 50.9713 62.3068 50.822C62.4561 50.6727 62.7361 50.598 63.1468 50.598H69.5308ZM63.7628 51.774C63.6508 51.774 63.5714 51.7973 63.5248 51.844C63.4874 51.8813 63.4688 51.956 63.4688 52.068V53.874C63.4688 53.986 63.4874 54.0653 63.5248 54.112C63.5714 54.1493 63.6508 54.168 63.7628 54.168H68.9148C69.0268 54.168 69.1014 54.1493 69.1388 54.112C69.1854 54.0653 69.2088 53.986 69.2088 53.874V52.068C69.2088 51.956 69.1854 51.8813 69.1388 51.844C69.1014 51.7973 69.0268 51.774 68.9148 51.774H63.7628ZM71.7288 56.618C71.8968 56.618 72.0181 56.6787 72.0928 56.8C72.1768 56.912 72.2188 57.0473 72.2188 57.206C72.2188 57.3647 72.1768 57.5047 72.0928 57.626C72.0181 57.738 71.8968 57.794 71.7288 57.794H67.1928V59.754C67.1928 59.9407 67.1228 60.076 66.9828 60.16C66.8521 60.244 66.6888 60.286 66.4928 60.286C66.3061 60.286 66.1428 60.244 66.0028 60.16C65.8721 60.076 65.8068 59.9407 65.8068 59.754V57.794H60.9488C60.7808 57.794 60.6548 57.738 60.5708 57.626C60.4961 57.5047 60.4588 57.3647 60.4588 57.206C60.4588 57.0473 60.4961 56.912 60.5708 56.8C60.6548 56.6787 60.7808 56.618 60.9488 56.618H71.7288ZM62.7548 58.928C62.9414 58.928 63.1048 58.9747 63.2448 59.068C63.3848 59.1613 63.4548 59.3107 63.4548 59.516V61.42C63.4548 61.616 63.5528 61.714 63.7488 61.714H70.3708C70.5388 61.714 70.6601 61.77 70.7348 61.882C70.8188 62.0033 70.8608 62.1433 70.8608 62.302C70.8608 62.4607 70.8188 62.6007 70.7348 62.722C70.6601 62.8433 70.5388 62.904 70.3708 62.904H63.1188C62.7081 62.904 62.4281 62.8293 62.2788 62.68C62.1294 62.5307 62.0548 62.2553 62.0548 61.854V59.516C62.0548 59.3107 62.1248 59.1613 62.2648 59.068C62.4048 58.9747 62.5681 58.928 62.7548 58.928ZM82.1609 50.934C82.5716 50.934 82.8516 51.0087 83.0009 51.158C83.1596 51.3073 83.2389 51.5827 83.2389 51.984V53.888C83.2389 54.28 83.1596 54.5507 83.0009 54.7C82.8516 54.8493 82.5716 54.924 82.1609 54.924H80.1169C79.9209 54.924 79.8229 55.022 79.8229 55.218V56.352C79.8229 56.464 79.8463 56.5433 79.8929 56.59C79.9396 56.6273 80.0143 56.646 80.1169 56.646C80.7329 56.646 81.3583 56.6273 81.9929 56.59C82.6276 56.5527 83.1923 56.4967 83.6869 56.422C83.8456 56.4033 83.9716 56.4407 84.0649 56.534C84.1583 56.6273 84.2143 56.758 84.2329 56.926C84.2516 57.0847 84.2283 57.234 84.1629 57.374C84.1069 57.5047 83.9996 57.5793 83.8409 57.598C83.4863 57.6633 82.9449 57.7193 82.2169 57.766C81.4889 57.8033 80.6023 57.822 79.5569 57.822C79.1463 57.822 78.8616 57.7473 78.7029 57.598C78.5536 57.4487 78.4789 57.178 78.4789 56.786V54.854C78.4789 54.4527 78.5536 54.1773 78.7029 54.028C78.8616 53.8787 79.1463 53.804 79.5569 53.804H81.6149C81.8109 53.804 81.9089 53.7107 81.9089 53.524V52.418C81.9089 52.306 81.8856 52.2313 81.8389 52.194C81.7923 52.1473 81.7176 52.124 81.6149 52.124H78.9409C78.7823 52.124 78.6656 52.068 78.5909 51.956C78.5163 51.8347 78.4789 51.6947 78.4789 51.536C78.4789 51.3773 78.5163 51.2373 78.5909 51.116C78.6656 50.9947 78.7823 50.934 78.9409 50.934H82.1609ZM88.4049 50.108C88.5729 50.108 88.7223 50.1547 88.8529 50.248C88.9929 50.332 89.0629 50.4673 89.0629 50.654V59.026C89.0629 59.2127 88.9929 59.3527 88.8529 59.446C88.7223 59.53 88.5729 59.572 88.4049 59.572C88.2463 59.572 88.0969 59.53 87.9569 59.446C87.8263 59.3527 87.7609 59.2127 87.7609 59.026V50.654C87.7609 50.4673 87.8263 50.332 87.9569 50.248C88.0969 50.1547 88.2463 50.108 88.4049 50.108ZM85.8989 50.178C86.0576 50.178 86.2023 50.2247 86.3329 50.318C86.4729 50.402 86.5429 50.5373 86.5429 50.724V58.438C86.5429 58.6247 86.4729 58.7647 86.3329 58.858C86.2023 58.942 86.0576 58.984 85.8989 58.984C85.7309 58.984 85.5769 58.942 85.4369 58.858C85.3063 58.7647 85.2409 58.6247 85.2409 58.438V54.686H84.2189C84.0603 54.686 83.9436 54.63 83.8689 54.518C83.7943 54.3967 83.7569 54.252 83.7569 54.084C83.7569 53.9067 83.7943 53.762 83.8689 53.65C83.9436 53.538 84.0603 53.482 84.2189 53.482H85.2409V50.724C85.2409 50.5373 85.3063 50.402 85.4369 50.318C85.5769 50.2247 85.7309 50.178 85.8989 50.178ZM81.2509 58.816C81.4283 58.816 81.5869 58.8627 81.7269 58.956C81.8763 59.0493 81.9509 59.1987 81.9509 59.404V61.35C81.9509 61.4527 81.9696 61.5227 82.0069 61.56C82.0536 61.6067 82.1329 61.63 82.2449 61.63H88.8949C89.0723 61.63 89.1983 61.6907 89.2729 61.812C89.3569 61.9333 89.3989 62.078 89.3989 62.246C89.3989 62.4047 89.3569 62.5447 89.2729 62.666C89.1983 62.7873 89.0723 62.848 88.8949 62.848H81.6149C81.2043 62.848 80.9196 62.7733 80.7609 62.624C80.6116 62.4747 80.5369 62.1993 80.5369 61.798V59.404C80.5369 59.1987 80.6069 59.0493 80.7469 58.956C80.8963 58.8627 81.0643 58.816 81.2509 58.816ZM101.189 50.892C101.357 50.892 101.478 50.9527 101.553 51.074C101.637 51.1953 101.679 51.3353 101.679 51.494C101.679 51.6527 101.637 51.7927 101.553 51.914C101.478 52.026 101.357 52.082 101.189 52.082H94.8051C94.6931 52.082 94.6138 52.1053 94.5671 52.152C94.5298 52.1987 94.5111 52.2733 94.5111 52.376V53.734H101.049C101.217 53.734 101.338 53.7947 101.413 53.916C101.497 54.028 101.539 54.1587 101.539 54.308C101.539 54.4667 101.497 54.602 101.413 54.714C101.338 54.826 101.217 54.882 101.049 54.882H94.5111V56.254C94.5111 56.3567 94.5298 56.4313 94.5671 56.478C94.6138 56.5247 94.6931 56.548 94.8051 56.548H101.427C101.595 56.548 101.716 56.6087 101.791 56.73C101.875 56.842 101.917 56.9773 101.917 57.136C101.917 57.2947 101.875 57.4347 101.791 57.556C101.716 57.668 101.595 57.724 101.427 57.724H94.2171C93.8065 57.724 93.5218 57.654 93.3631 57.514C93.2138 57.3647 93.1391 57.0893 93.1391 56.688V51.942C93.1391 51.5407 93.2138 51.2653 93.3631 51.116C93.5218 50.9667 93.8065 50.892 94.2171 50.892H101.189ZM102.813 59.782C102.981 59.782 103.102 59.8427 103.177 59.964C103.261 60.076 103.303 60.216 103.303 60.384C103.303 60.5427 103.261 60.6827 103.177 60.804C103.102 60.9253 102.981 60.986 102.813 60.986H92.0331C91.8651 60.986 91.7391 60.9253 91.6551 60.804C91.5805 60.6827 91.5431 60.5427 91.5431 60.384C91.5431 60.216 91.5805 60.076 91.6551 59.964C91.7391 59.8427 91.8651 59.782 92.0331 59.782H102.813ZM110.291 51.046C110.702 51.046 110.982 51.1207 111.131 51.27C111.29 51.4193 111.369 51.6947 111.369 52.096V53.86C111.369 54.28 111.341 54.658 111.285 54.994C111.239 55.3207 111.15 55.6287 111.019 55.918C110.889 56.198 110.707 56.4733 110.473 56.744C110.24 57.0053 109.937 57.2807 109.563 57.57C109.199 57.85 108.756 58.1533 108.233 58.48C107.711 58.8067 107.099 59.1753 106.399 59.586C106.25 59.67 106.096 59.6887 105.937 59.642C105.779 59.5953 105.653 59.4973 105.559 59.348C105.466 59.208 105.429 59.0493 105.447 58.872C105.466 58.6947 105.555 58.5593 105.713 58.466C106.441 58.046 107.053 57.6867 107.547 57.388C108.042 57.08 108.448 56.8047 108.765 56.562C109.092 56.3193 109.339 56.0907 109.507 55.876C109.685 55.6613 109.811 55.4327 109.885 55.19L105.783 55.428C105.615 55.4467 105.489 55.4 105.405 55.288C105.321 55.1667 105.27 55.022 105.251 54.854C105.242 54.7047 105.27 54.5647 105.335 54.434C105.41 54.3033 105.536 54.2333 105.713 54.224L110.011 54.028V52.544C110.011 52.432 109.988 52.3573 109.941 52.32C109.895 52.2733 109.82 52.25 109.717 52.25H106.091C105.914 52.25 105.783 52.1893 105.699 52.068C105.625 51.9467 105.587 51.8067 105.587 51.648C105.587 51.4893 105.625 51.3493 105.699 51.228C105.783 51.1067 105.914 51.046 106.091 51.046H110.291ZM114.239 50.108C114.426 50.108 114.589 50.1547 114.729 50.248C114.869 50.3413 114.939 50.4907 114.939 50.696V54.336H116.479C116.666 54.336 116.797 54.3967 116.871 54.518C116.955 54.63 116.997 54.77 116.997 54.938C116.997 55.106 116.955 55.2507 116.871 55.372C116.797 55.4933 116.666 55.554 116.479 55.554H114.939V61.616C114.939 61.8213 114.869 61.9707 114.729 62.064C114.589 62.1573 114.426 62.204 114.239 62.204C114.053 62.204 113.889 62.1573 113.749 62.064C113.609 61.9707 113.539 61.8213 113.539 61.616V50.696C113.539 50.4907 113.609 50.3413 113.749 50.248C113.889 50.1547 114.053 50.108 114.239 50.108Z" fill="#00C4DF"/>
<circle cx="126.5" cy="38.5" r="2.5" fill="#8575FF"/>
</svg>
