<svg width="129" height="55" viewBox="0 0 129 55" fill="none" xmlns="http://www.w3.org/2000/svg">
<path d="M20.92 26.4C22.5467 26.88 23.8 27.72 24.68 28.92C25.5867 30.0933 26.04 31.5467 26.04 33.28C26.04 35.6533 25.16 37.5333 23.4 38.92C21.6667 40.3067 19.2667 41 16.2 41H5.72C4.78667 41 4.06667 40.7467 3.56 40.24C3.05333 39.7333 2.8 39.0133 2.8 38.08V15.72C2.8 14.7867 3.05333 14.0667 3.56 13.56C4.06667 13.0533 4.78667 12.8 5.72 12.8H15.8C18.7333 12.8 21.0533 13.4533 22.76 14.76C24.4933 16.0667 25.36 17.8533 25.36 20.12C25.36 21.5867 24.96 22.88 24.16 24C23.3867 25.0933 22.3067 25.8933 20.92 26.4ZM8.88 24.28H14.76C16.36 24.28 17.5333 24.0133 18.28 23.48C19.0533 22.92 19.44 22.08 19.44 20.96C19.44 19.7867 19.0533 18.9333 18.28 18.4C17.5333 17.84 16.36 17.56 14.76 17.56H8.88V24.28ZM15.48 36.24C17.1333 36.24 18.3333 35.96 19.08 35.4C19.8267 34.84 20.2 33.9333 20.2 32.68C20.2 31.4267 19.8267 30.5067 19.08 29.92C18.3333 29.3333 17.1333 29.04 15.48 29.04H8.88V36.24H15.48ZM55.7663 41.24C54.8863 41.24 54.1529 41 53.5663 40.52C53.0063 40.04 52.7263 39.3333 52.7263 38.4V15.44C52.7263 14.5067 53.0063 13.8 53.5663 13.32C54.1529 12.84 54.8863 12.6 55.7663 12.6C56.6196 12.6 57.3263 12.84 57.8863 13.32C58.4729 13.8 58.7663 14.5067 58.7663 15.44V38.4C58.7663 39.3333 58.4729 40.04 57.8863 40.52C57.3263 41 56.6196 41.24 55.7663 41.24ZM66.9303 41.24C66.0503 41.24 65.317 41 64.7303 40.52C64.1703 40.04 63.8903 39.3333 63.8903 38.4V23.8C63.8903 22.8667 64.1836 22.16 64.7703 21.68C65.357 21.2 66.077 20.96 66.9303 20.96C67.7836 20.96 68.4903 21.2 69.0503 21.68C69.637 22.16 69.9303 22.8667 69.9303 23.8V38.4C69.9303 39.3333 69.637 40.04 69.0503 40.52C68.4903 41 67.7836 41.24 66.9303 41.24ZM66.9303 17.76C65.8636 17.76 65.0236 17.4933 64.4103 16.96C63.797 16.4 63.4903 15.6533 63.4903 14.72C63.4903 13.7867 63.797 13.0533 64.4103 12.52C65.0236 11.9867 65.8636 11.72 66.9303 11.72C67.9703 11.72 68.797 12 69.4103 12.56C70.0503 13.0933 70.3703 13.8133 70.3703 14.72C70.3703 15.6533 70.0636 16.4 69.4503 16.96C68.837 17.4933 67.997 17.76 66.9303 17.76ZM85.1744 41.2C84.241 41.2 83.481 40.92 82.8944 40.36C82.3344 39.8 82.0544 39.0533 82.0544 38.12V17.88H75.5744C73.601 17.88 72.6144 17.0267 72.6144 15.32C72.6144 13.64 73.601 12.8 75.5744 12.8H94.7744C96.7477 12.8 97.7344 13.64 97.7344 15.32C97.7344 17.0267 96.7477 17.88 94.7744 17.88H88.2944V38.12C88.2944 39.0533 88.0144 39.8 87.4544 40.36C86.8944 40.92 86.1344 41.2 85.1744 41.2ZM106.074 20.88C108.954 20.88 111.087 21.5867 112.474 23C113.861 24.3867 114.554 26.52 114.554 29.4V38.44C114.554 39.32 114.301 40.0133 113.794 40.52C113.287 41 112.581 41.24 111.674 41.24C110.821 41.24 110.127 40.9867 109.594 40.48C109.087 39.9467 108.834 39.2667 108.834 38.44V38.16C108.434 39.1467 107.767 39.92 106.834 40.48C105.901 41.04 104.807 41.32 103.554 41.32C102.221 41.32 101.007 41.0533 99.9141 40.52C98.8474 39.9867 97.9941 39.24 97.3541 38.28C96.7407 37.32 96.4341 36.2533 96.4341 35.08C96.4341 33.64 96.7941 32.5067 97.5141 31.68C98.2607 30.8533 99.4474 30.2533 101.074 29.88C102.701 29.5067 104.927 29.32 107.754 29.32H108.794V28.6C108.794 27.48 108.541 26.6667 108.034 26.16C107.554 25.6533 106.741 25.4 105.594 25.4C104.447 25.4 102.794 25.8 100.634 26.6C100.021 26.8933 99.5007 27.04 99.0741 27.04C98.4874 27.04 98.0207 26.84 97.6741 26.44C97.3274 26.0133 97.1541 25.4667 97.1541 24.8C97.1541 24.2667 97.2741 23.8267 97.5141 23.48C97.7541 23.1333 98.1407 22.8133 98.6741 22.52C99.6074 22.0133 100.741 21.6133 102.074 21.32C103.434 21.0267 104.767 20.88 106.074 20.88ZM104.874 37.16C106.047 37.16 106.994 36.7733 107.714 36C108.434 35.2 108.794 34.1733 108.794 32.92V32.24H108.114C105.954 32.24 104.434 32.4133 103.554 32.76C102.701 33.1067 102.274 33.7333 102.274 34.64C102.274 35.3867 102.514 36 102.994 36.48C103.501 36.9333 104.127 37.16 104.874 37.16Z" fill="#121212"/>
<path d="M33.4381 41.24C32.5581 41.24 31.8248 41 31.2381 40.52C30.6781 40.04 30.3981 39.3333 30.3981 38.4V23.8C30.3981 22.8667 30.6915 22.16 31.2781 21.68C31.8648 21.2 32.5848 20.96 33.4381 20.96C34.2915 20.96 34.9981 21.2 35.5581 21.68C36.1448 22.16 36.4381 22.8667 36.4381 23.8V38.4C36.4381 39.3333 36.1448 40.04 35.5581 40.52C34.9981 41 34.2915 41.24 33.4381 41.24ZM33.4381 17.76C32.3715 17.76 31.5315 17.4933 30.9181 16.96C30.3048 16.4 29.9981 15.6533 29.9981 14.72C29.9981 13.7867 30.3048 13.0533 30.9181 12.52C31.5315 11.9867 32.3715 11.72 33.4381 11.72C34.4781 11.72 35.3048 12 35.9181 12.56C36.5581 13.0933 36.8781 13.8133 36.8781 14.72C36.8781 15.6533 36.5715 16.4 35.9581 16.96C35.3448 17.4933 34.5048 17.76 33.4381 17.76Z" fill="#00C4DF"/>
<path d="M44.6022 41.24C43.7222 41.24 42.9889 41 42.4022 40.52C41.8422 40.04 41.5622 39.3333 41.5622 38.4V15.44C41.5622 14.5067 41.8422 13.8 42.4022 13.32C42.9889 12.84 43.7222 12.6 44.6022 12.6C45.4555 12.6 46.1622 12.84 46.7222 13.32C47.3089 13.8 47.6022 14.5067 47.6022 15.44V38.4C47.6022 39.3333 47.3089 40.04 46.7222 40.52C46.1622 41 45.4555 41.24 44.6022 41.24Z" fill="#0067DF"/>
<circle cx="126.5" cy="38.5" r="2.5" fill="#8575FF"/>
</svg>
