<svg width="115" height="57" viewBox="0 0 115 57" fill="none" xmlns="http://www.w3.org/2000/svg">
<path d="M7.448 44.9481C7.616 44.9481 7.73734 45.0087 7.812 45.1301C7.896 45.2514 7.938 45.3914 7.938 45.5501C7.938 45.7087 7.896 45.8487 7.812 45.9701C7.73734 46.0914 7.616 46.1521 7.448 46.1521H5.208V47.0341C5.208 47.5007 5.28267 47.9021 5.432 48.2381C5.59067 48.5647 5.838 48.8727 6.174 49.1621C6.482 49.4234 6.776 49.6661 7.056 49.8901C7.34534 50.1141 7.59734 50.3054 7.812 50.4641C7.97067 50.5761 8.05001 50.7114 8.05001 50.8701C8.05934 51.0287 8.01267 51.1781 7.91 51.3181C7.81667 51.4394 7.686 51.5281 7.518 51.5841C7.35934 51.6307 7.20067 51.5934 7.042 51.4721C6.85534 51.3321 6.636 51.1641 6.384 50.9681C6.132 50.7627 5.85667 50.5387 5.558 50.2961C5.20334 50.0067 4.95134 49.7734 4.802 49.5961C4.662 49.4094 4.57334 49.2367 4.536 49.0781H4.522C4.48467 49.2461 4.38667 49.4327 4.228 49.6381C4.07867 49.8341 3.82667 50.0767 3.472 50.3661C3.17334 50.6087 2.87934 50.8421 2.59 51.0661C2.30067 51.2901 2.02067 51.5001 1.75 51.6961C1.59134 51.8174 1.428 51.8547 1.26 51.8081C1.10134 51.7521 0.980004 51.6634 0.896004 51.5421C0.793338 51.4021 0.742004 51.2481 0.742004 51.0801C0.742004 50.9121 0.826004 50.7674 0.994004 50.6461C1.29267 50.4221 1.596 50.1934 1.904 49.9601C2.22134 49.7174 2.534 49.4607 2.842 49.1901C3.178 48.9007 3.42067 48.5927 3.57 48.2661C3.72867 47.9394 3.808 47.5427 3.808 47.0761V46.1521H1.47C1.29267 46.1521 1.162 46.0914 1.078 45.9701C1.00334 45.8487 0.966004 45.7087 0.966004 45.5501C0.966004 45.3914 1.00334 45.2514 1.078 45.1301C1.162 45.0087 1.29267 44.9481 1.47 44.9481H7.448ZM10.444 44.1081C10.6213 44.1081 10.78 44.1547 10.92 44.2481C11.06 44.3414 11.13 44.4907 11.13 44.6961V52.9841C11.13 53.1894 11.06 53.3387 10.92 53.4321C10.78 53.5254 10.6213 53.5721 10.444 53.5721C10.2573 53.5721 10.094 53.5254 9.95401 53.4321C9.81401 53.3387 9.74401 53.1894 9.74401 52.9841V48.7421H7.728C7.55067 48.7421 7.42 48.6814 7.336 48.5601C7.26134 48.4387 7.224 48.2987 7.224 48.1401C7.224 47.9721 7.26134 47.8321 7.336 47.7201C7.42 47.5987 7.55067 47.5381 7.728 47.5381H9.74401V44.6961C9.74401 44.4907 9.81401 44.3414 9.95401 44.2481C10.094 44.1547 10.2573 44.1081 10.444 44.1081ZM3.612 52.3961C3.78934 52.3961 3.948 52.4427 4.088 52.5361C4.23734 52.6294 4.312 52.7787 4.312 52.9841V55.3501C4.312 55.4527 4.33067 55.5227 4.368 55.5601C4.41467 55.6067 4.494 55.6301 4.606 55.6301H10.962C11.1393 55.6301 11.2653 55.6907 11.34 55.8121C11.424 55.9334 11.466 56.0781 11.466 56.2461C11.466 56.4047 11.424 56.5447 11.34 56.6661C11.2653 56.7874 11.1393 56.8481 10.962 56.8481H3.976C3.56534 56.8481 3.28067 56.7734 3.122 56.6241C2.97267 56.4747 2.898 56.1994 2.898 55.7981V52.9841C2.898 52.7787 2.968 52.6294 3.108 52.5361C3.25734 52.4427 3.42534 52.3961 3.612 52.3961Z" fill="white"/>
<path d="M18.7342 45.0601C19.1449 45.0601 19.4249 45.1347 19.5742 45.2841C19.7329 45.4334 19.8122 45.7087 19.8122 46.1101V47.6921C19.8122 48.0841 19.7889 48.4387 19.7422 48.7561C19.6955 49.0641 19.6069 49.3581 19.4762 49.6381C19.3455 49.9181 19.1635 50.1934 18.9302 50.4641C18.6969 50.7254 18.3935 51.0054 18.0202 51.3041C17.6562 51.5934 17.2129 51.9107 16.6902 52.2561C16.1675 52.6014 15.5469 52.9934 14.8282 53.4321C14.6695 53.5254 14.5109 53.5441 14.3522 53.4881C14.1935 53.4227 14.0675 53.3247 13.9742 53.1941C13.8809 53.0634 13.8342 52.9094 13.8342 52.7321C13.8435 52.5547 13.9275 52.4147 14.0862 52.3121C14.7489 51.9107 15.3135 51.5607 15.7802 51.2621C16.2562 50.9541 16.6529 50.6787 16.9702 50.4361C17.2875 50.1841 17.5395 49.9554 17.7262 49.7501C17.9222 49.5354 18.0715 49.3254 18.1742 49.1201C18.2769 48.9054 18.3422 48.6814 18.3702 48.4481C18.3982 48.2054 18.4122 47.9347 18.4122 47.6361V46.5581C18.4122 46.4554 18.3889 46.3854 18.3422 46.3481C18.3049 46.3014 18.2302 46.2781 18.1182 46.2781H14.4782C14.3009 46.2781 14.1702 46.2174 14.0862 46.0961C14.0115 45.9747 13.9742 45.8347 13.9742 45.6761C13.9742 45.5081 14.0115 45.3634 14.0862 45.2421C14.1702 45.1207 14.3009 45.0601 14.4782 45.0601H18.7342ZM23.0742 44.1081C23.2609 44.1081 23.4242 44.1547 23.5642 44.2481C23.7135 44.3414 23.7882 44.4907 23.7882 44.6961V55.6161C23.7882 55.8214 23.7135 55.9707 23.5642 56.0641C23.4242 56.1574 23.2609 56.2041 23.0742 56.2041C22.8969 56.2041 22.7335 56.1574 22.5842 56.0641C22.4442 55.9707 22.3742 55.8214 22.3742 55.6161V44.6961C22.3742 44.4907 22.4442 44.3414 22.5842 44.2481C22.7335 44.1547 22.8969 44.1081 23.0742 44.1081Z" fill="white"/>
<path d="M29.8524 44.0801C30.039 44.0801 30.2024 44.1267 30.3424 44.2201C30.4824 44.3134 30.5524 44.4627 30.5524 44.6681V45.8441H32.9324C33.1004 45.8441 33.2217 45.9047 33.2964 46.0261C33.3804 46.1474 33.4224 46.2874 33.4224 46.4461C33.4224 46.6047 33.3804 46.7447 33.2964 46.8661C33.2217 46.9874 33.1004 47.0481 32.9324 47.0481H30.5524V47.9161C30.5524 48.2147 30.5664 48.4761 30.5944 48.7001C30.6317 48.9241 30.6877 49.1341 30.7624 49.3301C30.837 49.5261 30.9397 49.7174 31.0704 49.9041C31.2104 50.0907 31.3877 50.2867 31.6024 50.4921C31.901 50.7907 32.1904 51.0707 32.4704 51.3321C32.7504 51.5934 33.0117 51.8267 33.2544 52.0321C33.385 52.1534 33.4364 52.3027 33.4084 52.4801C33.3897 52.6481 33.3244 52.7881 33.2124 52.9001C33.1004 53.0121 32.965 53.0821 32.8064 53.1101C32.6477 53.1381 32.503 53.0914 32.3724 52.9701C32.167 52.7927 31.943 52.5874 31.7004 52.3541C31.4577 52.1114 31.1917 51.8501 30.9024 51.5701C30.7064 51.3741 30.543 51.2061 30.4124 51.0661C30.2817 50.9167 30.179 50.7907 30.1044 50.6881C30.0297 50.5854 29.9737 50.4967 29.9364 50.4221C29.899 50.3474 29.8757 50.2727 29.8664 50.1981H29.8524C29.8337 50.2821 29.8057 50.3661 29.7684 50.4501C29.7404 50.5247 29.689 50.6181 29.6144 50.7301C29.5397 50.8327 29.437 50.9587 29.3064 51.1081C29.185 51.2481 29.0217 51.4161 28.8164 51.6121C28.5364 51.8827 28.261 52.1487 27.9904 52.4101C27.729 52.6621 27.449 52.9141 27.1504 53.1661C27.001 53.2874 26.8424 53.3294 26.6744 53.2921C26.5064 53.2454 26.371 53.1614 26.2684 53.0401C26.1564 52.9094 26.0957 52.7647 26.0864 52.6061C26.0864 52.4381 26.1564 52.2934 26.2964 52.1721C26.623 51.9014 26.931 51.6307 27.2204 51.3601C27.5097 51.0801 27.8037 50.7907 28.1024 50.4921C28.3077 50.2867 28.4804 50.0907 28.6204 49.9041C28.7604 49.7174 28.8677 49.5261 28.9424 49.3301C29.017 49.1341 29.0684 48.9241 29.0964 48.7001C29.1337 48.4761 29.1524 48.2147 29.1524 47.9161V47.0481H26.7024C26.525 47.0481 26.3944 46.9874 26.3104 46.8661C26.2357 46.7447 26.1984 46.6047 26.1984 46.4461C26.1984 46.2874 26.2357 46.1474 26.3104 46.0261C26.3944 45.9047 26.525 45.8441 26.7024 45.8441H29.1524V44.6681C29.1524 44.4627 29.2224 44.3134 29.3624 44.2201C29.5117 44.1267 29.675 44.0801 29.8524 44.0801ZM35.2284 44.1081C35.415 44.1081 35.5784 44.1547 35.7184 44.2481C35.8584 44.3414 35.9284 44.4907 35.9284 44.6961V48.3361H37.4684C37.655 48.3361 37.7857 48.3967 37.8604 48.5181C37.9444 48.6301 37.9864 48.7701 37.9864 48.9381C37.9864 49.1061 37.9444 49.2507 37.8604 49.3721C37.7857 49.4934 37.655 49.5541 37.4684 49.5541H35.9284V55.6161C35.9284 55.8214 35.8584 55.9707 35.7184 56.0641C35.5784 56.1574 35.415 56.2041 35.2284 56.2041C35.0417 56.2041 34.8784 56.1574 34.7384 56.0641C34.5984 55.9707 34.5284 55.8214 34.5284 55.6161V44.6961C34.5284 44.4907 34.5984 44.3414 34.7384 44.2481C34.8784 44.1547 35.0417 44.1081 35.2284 44.1081Z" fill="white"/>
<path d="M49.1746 44.9481C49.3426 44.9481 49.4639 45.0087 49.5386 45.1301C49.6226 45.2514 49.6646 45.3914 49.6646 45.5501C49.6646 45.7087 49.6226 45.8487 49.5386 45.9701C49.4639 46.0914 49.3426 46.1521 49.1746 46.1521H46.9346V47.0341C46.9346 47.5007 47.0092 47.9021 47.1586 48.2381C47.3172 48.5647 47.5646 48.8727 47.9006 49.1621C48.2086 49.4234 48.5026 49.6661 48.7826 49.8901C49.0719 50.1141 49.3239 50.3054 49.5386 50.4641C49.6972 50.5761 49.7766 50.7114 49.7766 50.8701C49.7859 51.0287 49.7392 51.1781 49.6366 51.3181C49.5432 51.4394 49.4126 51.5281 49.2446 51.5841C49.0859 51.6307 48.9272 51.5934 48.7686 51.4721C48.5819 51.3321 48.3626 51.1641 48.1106 50.9681C47.8586 50.7627 47.5832 50.5387 47.2846 50.2961C46.9299 50.0067 46.6779 49.7734 46.5286 49.5961C46.3886 49.4094 46.2999 49.2367 46.2626 49.0781H46.2486C46.2112 49.2461 46.1132 49.4327 45.9546 49.6381C45.8052 49.8341 45.5532 50.0767 45.1986 50.3661C44.8999 50.6087 44.6059 50.8421 44.3166 51.0661C44.0272 51.2901 43.7472 51.5001 43.4766 51.6961C43.3179 51.8174 43.1546 51.8547 42.9866 51.8081C42.8279 51.7521 42.7066 51.6634 42.6226 51.5421C42.5199 51.4021 42.4686 51.2481 42.4686 51.0801C42.4686 50.9121 42.5526 50.7674 42.7206 50.6461C43.0192 50.4221 43.3226 50.1934 43.6306 49.9601C43.9479 49.7174 44.2606 49.4607 44.5686 49.1901C44.9046 48.9007 45.1472 48.5927 45.2966 48.2661C45.4552 47.9394 45.5346 47.5427 45.5346 47.0761V46.1521H43.1966C43.0192 46.1521 42.8886 46.0914 42.8046 45.9701C42.7299 45.8487 42.6926 45.7087 42.6926 45.5501C42.6926 45.3914 42.7299 45.2514 42.8046 45.1301C42.8886 45.0087 43.0192 44.9481 43.1966 44.9481H49.1746ZM52.1706 44.1081C52.3479 44.1081 52.5066 44.1547 52.6466 44.2481C52.7866 44.3414 52.8566 44.4907 52.8566 44.6961V52.9841C52.8566 53.1894 52.7866 53.3387 52.6466 53.4321C52.5066 53.5254 52.3479 53.5721 52.1706 53.5721C51.9839 53.5721 51.8206 53.5254 51.6806 53.4321C51.5406 53.3387 51.4706 53.1894 51.4706 52.9841V48.7421H49.4546C49.2772 48.7421 49.1466 48.6814 49.0626 48.5601C48.9879 48.4387 48.9506 48.2987 48.9506 48.1401C48.9506 47.9721 48.9879 47.8321 49.0626 47.7201C49.1466 47.5987 49.2772 47.5381 49.4546 47.5381H51.4706V44.6961C51.4706 44.4907 51.5406 44.3414 51.6806 44.2481C51.8206 44.1547 51.9839 44.1081 52.1706 44.1081ZM45.3386 52.3961C45.5159 52.3961 45.6746 52.4427 45.8146 52.5361C45.9639 52.6294 46.0386 52.7787 46.0386 52.9841V55.3501C46.0386 55.4527 46.0572 55.5227 46.0946 55.5601C46.1412 55.6067 46.2206 55.6301 46.3326 55.6301H52.6886C52.8659 55.6301 52.9919 55.6907 53.0666 55.8121C53.1506 55.9334 53.1926 56.0781 53.1926 56.2461C53.1926 56.4047 53.1506 56.5447 53.0666 56.6661C52.9919 56.7874 52.8659 56.8481 52.6886 56.8481H45.7026C45.2919 56.8481 45.0072 56.7734 44.8486 56.6241C44.6992 56.4747 44.6246 56.1994 44.6246 55.7981V52.9841C44.6246 52.7787 44.6946 52.6294 44.8346 52.5361C44.9839 52.4427 45.1519 52.3961 45.3386 52.3961Z" fill="white"/>
<path d="M64.0308 44.5981C64.4414 44.5981 64.7214 44.6727 64.8708 44.8221C65.0294 44.9714 65.1088 45.2467 65.1088 45.6481V48.2941C65.1088 48.6954 65.0294 48.9707 64.8708 49.1201C64.7214 49.2694 64.4414 49.3441 64.0308 49.3441H57.6468C57.2361 49.3441 56.9561 49.2694 56.8068 49.1201C56.6574 48.9707 56.5828 48.6954 56.5828 48.2941V45.6481C56.5828 45.2467 56.6574 44.9714 56.8068 44.8221C56.9561 44.6727 57.2361 44.5981 57.6468 44.5981H64.0308ZM58.2628 45.7741C58.1508 45.7741 58.0714 45.7974 58.0248 45.8441C57.9874 45.8814 57.9688 45.9561 57.9688 46.0681V47.8741C57.9688 47.9861 57.9874 48.0654 58.0248 48.1121C58.0714 48.1494 58.1508 48.1681 58.2628 48.1681H63.4148C63.5268 48.1681 63.6014 48.1494 63.6388 48.1121C63.6854 48.0654 63.7088 47.9861 63.7088 47.8741V46.0681C63.7088 45.9561 63.6854 45.8814 63.6388 45.8441C63.6014 45.7974 63.5268 45.7741 63.4148 45.7741H58.2628ZM66.2288 50.6181C66.3968 50.6181 66.5181 50.6787 66.5928 50.8001C66.6768 50.9121 66.7188 51.0474 66.7188 51.2061C66.7188 51.3647 66.6768 51.5047 66.5928 51.6261C66.5181 51.7381 66.3968 51.7941 66.2288 51.7941H61.6928V53.7541C61.6928 53.9407 61.6228 54.0761 61.4828 54.1601C61.3521 54.2441 61.1888 54.2861 60.9928 54.2861C60.8061 54.2861 60.6428 54.2441 60.5028 54.1601C60.3721 54.0761 60.3068 53.9407 60.3068 53.7541V51.7941H55.4488C55.2808 51.7941 55.1548 51.7381 55.0708 51.6261C54.9961 51.5047 54.9588 51.3647 54.9588 51.2061C54.9588 51.0474 54.9961 50.9121 55.0708 50.8001C55.1548 50.6787 55.2808 50.6181 55.4488 50.6181H66.2288ZM57.2548 52.9281C57.4414 52.9281 57.6048 52.9747 57.7448 53.0681C57.8848 53.1614 57.9548 53.3107 57.9548 53.5161V55.4201C57.9548 55.6161 58.0528 55.7141 58.2488 55.7141H64.8708C65.0388 55.7141 65.1601 55.7701 65.2348 55.8821C65.3188 56.0034 65.3608 56.1434 65.3608 56.3021C65.3608 56.4607 65.3188 56.6007 65.2348 56.7221C65.1601 56.8434 65.0388 56.9041 64.8708 56.9041H57.6188C57.2081 56.9041 56.9281 56.8294 56.7788 56.6801C56.6294 56.5307 56.5548 56.2554 56.5548 55.8541V53.5161C56.5548 53.3107 56.6248 53.1614 56.7648 53.0681C56.9048 52.9747 57.0681 52.9281 57.2548 52.9281Z" fill="white"/>
<path d="M75.2609 44.9341C75.6716 44.9341 75.9516 45.0087 76.1009 45.1581C76.2596 45.3074 76.3389 45.5827 76.3389 45.9841V47.8881C76.3389 48.2801 76.2596 48.5507 76.1009 48.7001C75.9516 48.8494 75.6716 48.9241 75.2609 48.9241H73.2169C73.0209 48.9241 72.9229 49.0221 72.9229 49.2181V50.3521C72.9229 50.4641 72.9463 50.5434 72.9929 50.5901C73.0396 50.6274 73.1143 50.6461 73.2169 50.6461C73.8329 50.6461 74.4583 50.6274 75.0929 50.5901C75.7276 50.5527 76.2923 50.4967 76.7869 50.4221C76.9456 50.4034 77.0716 50.4407 77.1649 50.5341C77.2583 50.6274 77.3143 50.7581 77.3329 50.9261C77.3516 51.0847 77.3283 51.2341 77.2629 51.3741C77.2069 51.5047 77.0996 51.5794 76.9409 51.5981C76.5863 51.6634 76.0449 51.7194 75.3169 51.7661C74.5889 51.8034 73.7023 51.8221 72.6569 51.8221C72.2463 51.8221 71.9616 51.7474 71.8029 51.5981C71.6536 51.4487 71.5789 51.1781 71.5789 50.7861V48.8541C71.5789 48.4527 71.6536 48.1774 71.8029 48.0281C71.9616 47.8787 72.2463 47.8041 72.6569 47.8041H74.7149C74.9109 47.8041 75.0089 47.7107 75.0089 47.5241V46.4181C75.0089 46.3061 74.9856 46.2314 74.9389 46.1941C74.8923 46.1474 74.8176 46.1241 74.7149 46.1241H72.0409C71.8823 46.1241 71.7656 46.0681 71.6909 45.9561C71.6163 45.8347 71.5789 45.6947 71.5789 45.5361C71.5789 45.3774 71.6163 45.2374 71.6909 45.1161C71.7656 44.9947 71.8823 44.9341 72.0409 44.9341H75.2609ZM81.5049 44.1081C81.6729 44.1081 81.8223 44.1547 81.9529 44.2481C82.0929 44.3321 82.1629 44.4674 82.1629 44.6541V53.0261C82.1629 53.2127 82.0929 53.3527 81.9529 53.4461C81.8223 53.5301 81.6729 53.5721 81.5049 53.5721C81.3463 53.5721 81.1969 53.5301 81.0569 53.4461C80.9263 53.3527 80.8609 53.2127 80.8609 53.0261V44.6541C80.8609 44.4674 80.9263 44.3321 81.0569 44.2481C81.1969 44.1547 81.3463 44.1081 81.5049 44.1081ZM78.9989 44.1781C79.1576 44.1781 79.3023 44.2247 79.4329 44.3181C79.5729 44.4021 79.6429 44.5374 79.6429 44.7241V52.4381C79.6429 52.6247 79.5729 52.7647 79.4329 52.8581C79.3023 52.9421 79.1576 52.9841 78.9989 52.9841C78.8309 52.9841 78.6769 52.9421 78.5369 52.8581C78.4063 52.7647 78.3409 52.6247 78.3409 52.4381V48.6861H77.3189C77.1603 48.6861 77.0436 48.6301 76.9689 48.5181C76.8943 48.3967 76.8569 48.2521 76.8569 48.0841C76.8569 47.9067 76.8943 47.7621 76.9689 47.6501C77.0436 47.5381 77.1603 47.4821 77.3189 47.4821H78.3409V44.7241C78.3409 44.5374 78.4063 44.4021 78.5369 44.3181C78.6769 44.2247 78.8309 44.1781 78.9989 44.1781ZM74.3509 52.8161C74.5283 52.8161 74.6869 52.8627 74.8269 52.9561C74.9763 53.0494 75.0509 53.1987 75.0509 53.4041V55.3501C75.0509 55.4527 75.0696 55.5227 75.1069 55.5601C75.1536 55.6067 75.2329 55.6301 75.3449 55.6301H81.9949C82.1723 55.6301 82.2983 55.6907 82.3729 55.8121C82.4569 55.9334 82.4989 56.0781 82.4989 56.2461C82.4989 56.4047 82.4569 56.5447 82.3729 56.6661C82.2983 56.7874 82.1723 56.8481 81.9949 56.8481H74.7149C74.3043 56.8481 74.0196 56.7734 73.8609 56.6241C73.7116 56.4747 73.6369 56.1994 73.6369 55.7981V53.4041C73.6369 53.1987 73.7069 53.0494 73.8469 52.9561C73.9963 52.8627 74.1643 52.8161 74.3509 52.8161Z" fill="white"/>
<path d="M93.5891 44.8921C93.7571 44.8921 93.8785 44.9527 93.9531 45.0741C94.0371 45.1954 94.0791 45.3354 94.0791 45.4941C94.0791 45.6527 94.0371 45.7927 93.9531 45.9141C93.8785 46.0261 93.7571 46.0821 93.5891 46.0821H87.2051C87.0931 46.0821 87.0138 46.1054 86.9671 46.1521C86.9298 46.1987 86.9111 46.2734 86.9111 46.3761V47.7341H93.4491C93.6171 47.7341 93.7385 47.7947 93.8131 47.9161C93.8971 48.0281 93.9391 48.1587 93.9391 48.3081C93.9391 48.4667 93.8971 48.6021 93.8131 48.7141C93.7385 48.8261 93.6171 48.8821 93.4491 48.8821H86.9111V50.2541C86.9111 50.3567 86.9298 50.4314 86.9671 50.4781C87.0138 50.5247 87.0931 50.5481 87.2051 50.5481H93.8271C93.9951 50.5481 94.1165 50.6087 94.1911 50.7301C94.2751 50.8421 94.3171 50.9774 94.3171 51.1361C94.3171 51.2947 94.2751 51.4347 94.1911 51.5561C94.1165 51.6681 93.9951 51.7241 93.8271 51.7241H86.6171C86.2065 51.7241 85.9218 51.6541 85.7631 51.5141C85.6138 51.3647 85.5391 51.0894 85.5391 50.6881V45.9421C85.5391 45.5407 85.6138 45.2654 85.7631 45.1161C85.9218 44.9667 86.2065 44.8921 86.6171 44.8921H93.5891ZM95.2131 53.7821C95.3811 53.7821 95.5025 53.8427 95.5771 53.9641C95.6611 54.0761 95.7031 54.2161 95.7031 54.3841C95.7031 54.5427 95.6611 54.6827 95.5771 54.8041C95.5025 54.9254 95.3811 54.9861 95.2131 54.9861H84.4331C84.2651 54.9861 84.1391 54.9254 84.0551 54.8041C83.9805 54.6827 83.9431 54.5427 83.9431 54.3841C83.9431 54.2161 83.9805 54.0761 84.0551 53.9641C84.1391 53.8427 84.2651 53.7821 84.4331 53.7821H95.2131Z" fill="white"/>
<path d="M101.991 45.0461C102.402 45.0461 102.682 45.1207 102.831 45.2701C102.99 45.4194 103.069 45.6947 103.069 46.0961V47.8601C103.069 48.2801 103.041 48.6581 102.985 48.9941C102.939 49.3207 102.85 49.6287 102.719 49.9181C102.589 50.1981 102.407 50.4734 102.173 50.7441C101.94 51.0054 101.637 51.2807 101.263 51.5701C100.899 51.8501 100.456 52.1534 99.9333 52.4801C99.4107 52.8067 98.7993 53.1754 98.0993 53.5861C97.95 53.6701 97.796 53.6887 97.6373 53.6421C97.4787 53.5954 97.3527 53.4974 97.2593 53.3481C97.166 53.2081 97.1287 53.0494 97.1473 52.8721C97.166 52.6947 97.2547 52.5594 97.4133 52.4661C98.1413 52.0461 98.7527 51.6867 99.2473 51.3881C99.742 51.0801 100.148 50.8047 100.465 50.5621C100.792 50.3194 101.039 50.0907 101.207 49.8761C101.385 49.6614 101.511 49.4327 101.585 49.1901L97.4833 49.4281C97.3153 49.4467 97.1893 49.4001 97.1053 49.2881C97.0213 49.1667 96.97 49.0221 96.9513 48.8541C96.942 48.7047 96.97 48.5647 97.0353 48.4341C97.11 48.3034 97.236 48.2334 97.4133 48.2241L101.711 48.0281V46.5441C101.711 46.4321 101.688 46.3574 101.641 46.3201C101.595 46.2734 101.52 46.2501 101.417 46.2501H97.7913C97.614 46.2501 97.4833 46.1894 97.3993 46.0681C97.3247 45.9467 97.2873 45.8067 97.2873 45.6481C97.2873 45.4894 97.3247 45.3494 97.3993 45.2281C97.4833 45.1067 97.614 45.0461 97.7913 45.0461H101.991ZM105.939 44.1081C106.126 44.1081 106.289 44.1547 106.429 44.2481C106.569 44.3414 106.639 44.4907 106.639 44.6961V48.3361H108.179C108.366 48.3361 108.497 48.3967 108.571 48.5181C108.655 48.6301 108.697 48.7701 108.697 48.9381C108.697 49.1061 108.655 49.2507 108.571 49.3721C108.497 49.4934 108.366 49.5541 108.179 49.5541H106.639V55.6161C106.639 55.8214 106.569 55.9707 106.429 56.0641C106.289 56.1574 106.126 56.2041 105.939 56.2041C105.753 56.2041 105.589 56.1574 105.449 56.0641C105.309 55.9707 105.239 55.8214 105.239 55.6161V44.6961C105.239 44.4907 105.309 44.3414 105.449 44.2481C105.589 44.1547 105.753 44.1081 105.939 44.1081Z" fill="white"/>
<path d="M17.4 20.4396C19.0267 20.8929 20.28 21.7196 21.16 22.9196C22.0667 24.1196 22.52 25.5863 22.52 27.3196C22.52 29.7196 21.6533 31.5996 19.92 32.9596C18.2133 34.3196 15.8533 34.9996 12.84 34.9996H2.52001C1.74668 34.9996 1.13334 34.7863 0.680009 34.3596C0.253342 33.9329 0.0400085 33.3329 0.0400085 32.5596V9.23961C0.0400085 8.46628 0.253342 7.86628 0.680009 7.43961C1.13334 7.01294 1.74668 6.79961 2.52001 6.79961H12.44C15.3733 6.79961 17.6667 7.45294 19.32 8.75961C21 10.0396 21.84 11.8396 21.84 14.1596C21.84 15.6529 21.44 16.9463 20.64 18.0396C19.8667 19.1329 18.7867 19.9329 17.4 20.4396ZM5.08001 18.6796H11.6C15.1467 18.6796 16.92 17.3596 16.92 14.7196C16.92 13.3863 16.48 12.3996 15.6 11.7596C14.72 11.1196 13.3867 10.7996 11.6 10.7996H5.08001V18.6796ZM12.28 30.9996C14.1467 30.9996 15.5067 30.6663 16.36 29.9996C17.2133 29.3329 17.64 28.2929 17.64 26.8796C17.64 25.4663 17.2 24.4129 16.32 23.7196C15.4667 23.0263 14.12 22.6796 12.28 22.6796H5.08001V30.9996H12.28Z" fill="white"/>
<path d="M29.8847 35.2396C29.1647 35.2396 28.5647 35.0396 28.0847 34.6396C27.6314 34.2129 27.4047 33.6129 27.4047 32.8396V17.3996C27.4047 16.6263 27.6314 16.0396 28.0847 15.6396C28.5647 15.2396 29.1647 15.0396 29.8847 15.0396C30.6047 15.0396 31.2047 15.2396 31.6847 15.6396C32.1647 16.0396 32.4047 16.6263 32.4047 17.3996V32.8396C32.4047 33.6129 32.1647 34.2129 31.6847 34.6396C31.2047 35.0396 30.6047 35.2396 29.8847 35.2396ZM29.8847 11.4796C28.978 11.4796 28.258 11.2396 27.7247 10.7596C27.1914 10.2529 26.9247 9.59961 26.9247 8.79961C26.9247 7.99961 27.1914 7.35961 27.7247 6.87961C28.258 6.39961 28.978 6.15961 29.8847 6.15961C30.7647 6.15961 31.4714 6.39961 32.0047 6.87961C32.5647 7.35961 32.8447 7.99961 32.8447 8.79961C32.8447 9.59961 32.578 10.2529 32.0447 10.7596C31.5114 11.2396 30.7914 11.4796 29.8847 11.4796Z" fill="white"/>
<path d="M40.5409 35.2396C39.8209 35.2396 39.2209 35.0396 38.7409 34.6396C38.2876 34.2129 38.0609 33.6129 38.0609 32.8396V2.95961C38.0609 2.18628 38.2876 1.59961 38.7409 1.19961C39.2209 0.799609 39.8209 0.599609 40.5409 0.599609C41.2609 0.599609 41.8609 0.799609 42.3409 1.19961C42.8209 1.59961 43.0609 2.18628 43.0609 2.95961V32.8396C43.0609 33.6129 42.8209 34.2129 42.3409 34.6396C41.8609 35.0396 41.2609 35.2396 40.5409 35.2396Z" fill="white"/>
<path d="M51.1972 35.2396C50.4772 35.2396 49.8772 35.0396 49.3972 34.6396C48.9439 34.2129 48.7172 33.6129 48.7172 32.8396V8.95961C48.7172 8.18628 48.9439 7.59961 49.3972 7.19961C49.8772 6.79961 50.4772 6.59961 51.1972 6.59961C51.9172 6.59961 52.5172 6.79961 52.9972 7.19961C53.4772 7.59961 53.7172 8.18628 53.7172 8.95961V32.8396C53.7172 33.6129 53.4772 34.2129 52.9972 34.6396C52.5172 35.0396 51.9172 35.2396 51.1972 35.2396Z" fill="white"/>
<path d="M61.8534 35.2396C61.1334 35.2396 60.5334 35.0396 60.0534 34.6396C59.6001 34.2129 59.3734 33.6129 59.3734 32.8396V17.3996C59.3734 16.6263 59.6001 16.0396 60.0534 15.6396C60.5334 15.2396 61.1334 15.0396 61.8534 15.0396C62.5734 15.0396 63.1734 15.2396 63.6534 15.6396C64.1334 16.0396 64.3734 16.6263 64.3734 17.3996V32.8396C64.3734 33.6129 64.1334 34.2129 63.6534 34.6396C63.1734 35.0396 62.5734 35.2396 61.8534 35.2396ZM61.8534 11.4796C60.9468 11.4796 60.2268 11.2396 59.6934 10.7596C59.1601 10.2529 58.8934 9.59961 58.8934 8.79961C58.8934 7.99961 59.1601 7.35961 59.6934 6.87961C60.2268 6.39961 60.9468 6.15961 61.8534 6.15961C62.7334 6.15961 63.4401 6.39961 63.9734 6.87961C64.5334 7.35961 64.8134 7.99961 64.8134 8.79961C64.8134 9.59961 64.5468 10.2529 64.0134 10.7596C63.4801 11.2396 62.7601 11.4796 61.8534 11.4796Z" fill="white"/>
<path d="M78.7097 35.1996C77.9097 35.1996 77.2697 34.9729 76.7897 34.5196C76.3364 34.0396 76.1097 33.4129 76.1097 32.6396V11.0396H70.8297C69.2297 11.0396 68.4297 10.3329 68.4297 8.91961C68.4297 7.50628 69.2297 6.79961 70.8297 6.79961H88.5497C90.1497 6.79961 90.9497 7.50628 90.9497 8.91961C90.9497 10.3329 90.1497 11.0396 88.5497 11.0396H81.2697V32.6396C81.2697 33.4129 81.0297 34.0396 80.5497 34.5196C80.0964 34.9729 79.483 35.1996 78.7097 35.1996Z" fill="white"/>
<path d="M98.4159 14.9596C101.136 14.9596 103.149 15.6396 104.456 16.9996C105.789 18.3329 106.456 20.3729 106.456 23.1196V32.8796C106.456 33.5996 106.243 34.1729 105.816 34.5996C105.389 34.9996 104.803 35.1996 104.056 35.1996C103.363 35.1996 102.789 34.9863 102.336 34.5596C101.909 34.1329 101.696 33.5729 101.696 32.8796V31.9996C101.243 33.0396 100.523 33.8529 99.5359 34.4396C98.5759 35.0263 97.4559 35.3196 96.1759 35.3196C94.8693 35.3196 93.6826 35.0529 92.6159 34.5196C91.5493 33.9863 90.7093 33.2529 90.0959 32.3196C89.4826 31.3863 89.1759 30.3463 89.1759 29.1996C89.1759 27.7596 89.5359 26.6263 90.2559 25.7996C91.0026 24.9729 92.2026 24.3729 93.8559 23.9996C95.5093 23.6263 97.7893 23.4396 100.696 23.4396H101.696V22.5196C101.696 21.2129 101.416 20.2663 100.856 19.6796C100.296 19.0663 99.3893 18.7596 98.1359 18.7596C97.3626 18.7596 96.5759 18.8796 95.7759 19.1196C94.9759 19.3329 94.0293 19.6529 92.9359 20.0796C92.2426 20.4263 91.7359 20.5996 91.4159 20.5996C90.9359 20.5996 90.5359 20.4263 90.2159 20.0796C89.9226 19.7329 89.7759 19.2796 89.7759 18.7196C89.7759 18.2663 89.8826 17.8796 90.0959 17.5596C90.3359 17.2129 90.7226 16.8929 91.2559 16.5996C92.1893 16.0929 93.2959 15.6929 94.5759 15.3996C95.8826 15.1063 97.1626 14.9596 98.4159 14.9596ZM97.1759 31.7196C98.5093 31.7196 99.5893 31.2796 100.416 30.3996C101.269 29.4929 101.696 28.3329 101.696 26.9196V26.0796H100.976C99.1893 26.0796 97.8026 26.1596 96.8159 26.3196C95.8293 26.4796 95.1226 26.7596 94.6959 27.1596C94.2693 27.5596 94.0559 28.1063 94.0559 28.7996C94.0559 29.6529 94.3493 30.3596 94.9359 30.9196C95.5493 31.4529 96.2959 31.7196 97.1759 31.7196Z" fill="white"/>
<circle cx="112.5" cy="32.5" r="2.5" fill="white"/>
</svg>
