<svg width="115" height="36" viewBox="0 0 115 36" fill="none" xmlns="http://www.w3.org/2000/svg">
<path d="M17.4 20.4396C19.0267 20.8929 20.28 21.7196 21.16 22.9196C22.0667 24.1196 22.52 25.5863 22.52 27.3196C22.52 29.7196 21.6533 31.5996 19.92 32.9596C18.2133 34.3196 15.8533 34.9996 12.84 34.9996H2.52001C1.74668 34.9996 1.13334 34.7863 0.680009 34.3596C0.253342 33.9329 0.0400085 33.3329 0.0400085 32.5596V9.23961C0.0400085 8.46628 0.253342 7.86628 0.680009 7.43961C1.13334 7.01294 1.74668 6.79961 2.52001 6.79961H12.44C15.3733 6.79961 17.6667 7.45294 19.32 8.75961C21 10.0396 21.84 11.8396 21.84 14.1596C21.84 15.6529 21.44 16.9463 20.64 18.0396C19.8667 19.1329 18.7867 19.9329 17.4 20.4396ZM5.08001 18.6796H11.6C15.1467 18.6796 16.92 17.3596 16.92 14.7196C16.92 13.3863 16.48 12.3996 15.6 11.7596C14.72 11.1196 13.3867 10.7996 11.6 10.7996H5.08001V18.6796ZM12.28 30.9996C14.1467 30.9996 15.5067 30.6663 16.36 29.9996C17.2133 29.3329 17.64 28.2929 17.64 26.8796C17.64 25.4663 17.2 24.4129 16.32 23.7196C15.4667 23.0263 14.12 22.6796 12.28 22.6796H5.08001V30.9996H12.28Z" fill="#121212"/>
<path d="M29.8847 35.2396C29.1647 35.2396 28.5647 35.0396 28.0847 34.6396C27.6314 34.2129 27.4047 33.6129 27.4047 32.8396V17.3996C27.4047 16.6263 27.6314 16.0396 28.0847 15.6396C28.5647 15.2396 29.1647 15.0396 29.8847 15.0396C30.6047 15.0396 31.2047 15.2396 31.6847 15.6396C32.1647 16.0396 32.4047 16.6263 32.4047 17.3996V32.8396C32.4047 33.6129 32.1647 34.2129 31.6847 34.6396C31.2047 35.0396 30.6047 35.2396 29.8847 35.2396ZM29.8847 11.4796C28.978 11.4796 28.258 11.2396 27.7247 10.7596C27.1914 10.2529 26.9247 9.59961 26.9247 8.79961C26.9247 7.99961 27.1914 7.35961 27.7247 6.87961C28.258 6.39961 28.978 6.15961 29.8847 6.15961C30.7647 6.15961 31.4714 6.39961 32.0047 6.87961C32.5647 7.35961 32.8447 7.99961 32.8447 8.79961C32.8447 9.59961 32.578 10.2529 32.0447 10.7596C31.5114 11.2396 30.7914 11.4796 29.8847 11.4796Z" fill="#00C4DF"/>
<path d="M40.5409 35.2396C39.8209 35.2396 39.2209 35.0396 38.7409 34.6396C38.2876 34.2129 38.0609 33.6129 38.0609 32.8396V2.95961C38.0609 2.18628 38.2876 1.59961 38.7409 1.19961C39.2209 0.799609 39.8209 0.599609 40.5409 0.599609C41.2609 0.599609 41.8609 0.799609 42.3409 1.19961C42.8209 1.59961 43.0609 2.18628 43.0609 2.95961V32.8396C43.0609 33.6129 42.8209 34.2129 42.3409 34.6396C41.8609 35.0396 41.2609 35.2396 40.5409 35.2396Z" fill="#0067DF"/>
<path d="M51.1972 35.2396C50.4772 35.2396 49.8772 35.0396 49.3972 34.6396C48.9439 34.2129 48.7172 33.6129 48.7172 32.8396V8.95961C48.7172 8.18628 48.9439 7.59961 49.3972 7.19961C49.8772 6.79961 50.4772 6.59961 51.1972 6.59961C51.9172 6.59961 52.5172 6.79961 52.9972 7.19961C53.4772 7.59961 53.7172 8.18628 53.7172 8.95961V32.8396C53.7172 33.6129 53.4772 34.2129 52.9972 34.6396C52.5172 35.0396 51.9172 35.2396 51.1972 35.2396Z" fill="#121212"/>
<path d="M61.8534 35.2396C61.1334 35.2396 60.5334 35.0396 60.0534 34.6396C59.6001 34.2129 59.3734 33.6129 59.3734 32.8396V17.3996C59.3734 16.6263 59.6001 16.0396 60.0534 15.6396C60.5334 15.2396 61.1334 15.0396 61.8534 15.0396C62.5734 15.0396 63.1734 15.2396 63.6534 15.6396C64.1334 16.0396 64.3734 16.6263 64.3734 17.3996V32.8396C64.3734 33.6129 64.1334 34.2129 63.6534 34.6396C63.1734 35.0396 62.5734 35.2396 61.8534 35.2396ZM61.8534 11.4796C60.9468 11.4796 60.2268 11.2396 59.6934 10.7596C59.1601 10.2529 58.8934 9.59961 58.8934 8.79961C58.8934 7.99961 59.1601 7.35961 59.6934 6.87961C60.2268 6.39961 60.9468 6.15961 61.8534 6.15961C62.7334 6.15961 63.4401 6.39961 63.9734 6.87961C64.5334 7.35961 64.8134 7.99961 64.8134 8.79961C64.8134 9.59961 64.5468 10.2529 64.0134 10.7596C63.4801 11.2396 62.7601 11.4796 61.8534 11.4796Z" fill="#121212"/>
<path d="M78.7097 35.1996C77.9097 35.1996 77.2697 34.9729 76.7897 34.5196C76.3364 34.0396 76.1097 33.4129 76.1097 32.6396V11.0396H70.8297C69.2297 11.0396 68.4297 10.3329 68.4297 8.91961C68.4297 7.50628 69.2297 6.79961 70.8297 6.79961H88.5497C90.1497 6.79961 90.9497 7.50628 90.9497 8.91961C90.9497 10.3329 90.1497 11.0396 88.5497 11.0396H81.2697V32.6396C81.2697 33.4129 81.0297 34.0396 80.5497 34.5196C80.0964 34.9729 79.483 35.1996 78.7097 35.1996Z" fill="#121212"/>
<path d="M98.4159 14.9596C101.136 14.9596 103.149 15.6396 104.456 16.9996C105.789 18.3329 106.456 20.3729 106.456 23.1196V32.8796C106.456 33.5996 106.243 34.1729 105.816 34.5996C105.389 34.9996 104.803 35.1996 104.056 35.1996C103.363 35.1996 102.789 34.9863 102.336 34.5596C101.909 34.1329 101.696 33.5729 101.696 32.8796V31.9996C101.243 33.0396 100.523 33.8529 99.5359 34.4396C98.5759 35.0263 97.4559 35.3196 96.1759 35.3196C94.8693 35.3196 93.6826 35.0529 92.6159 34.5196C91.5493 33.9863 90.7093 33.2529 90.0959 32.3196C89.4826 31.3863 89.1759 30.3463 89.1759 29.1996C89.1759 27.7596 89.5359 26.6263 90.2559 25.7996C91.0026 24.9729 92.2026 24.3729 93.8559 23.9996C95.5093 23.6263 97.7893 23.4396 100.696 23.4396H101.696V22.5196C101.696 21.2129 101.416 20.2663 100.856 19.6796C100.296 19.0663 99.3893 18.7596 98.1359 18.7596C97.3626 18.7596 96.5759 18.8796 95.7759 19.1196C94.9759 19.3329 94.0293 19.6529 92.9359 20.0796C92.2426 20.4263 91.7359 20.5996 91.4159 20.5996C90.9359 20.5996 90.5359 20.4263 90.2159 20.0796C89.9226 19.7329 89.7759 19.2796 89.7759 18.7196C89.7759 18.2663 89.8826 17.8796 90.0959 17.5596C90.3359 17.2129 90.7226 16.8929 91.2559 16.5996C92.1893 16.0929 93.2959 15.6929 94.5759 15.3996C95.8826 15.1063 97.1626 14.9596 98.4159 14.9596ZM97.1759 31.7196C98.5093 31.7196 99.5893 31.2796 100.416 30.3996C101.269 29.4929 101.696 28.3329 101.696 26.9196V26.0796H100.976C99.1893 26.0796 97.8026 26.1596 96.8159 26.3196C95.8293 26.4796 95.1226 26.7596 94.6959 27.1596C94.2693 27.5596 94.0559 28.1063 94.0559 28.7996C94.0559 29.6529 94.3493 30.3596 94.9359 30.9196C95.5493 31.4529 96.2959 31.7196 97.1759 31.7196Z" fill="#121212"/>
<circle cx="112.5" cy="32.5" r="2.5" fill="#8575FF"/>
</svg>
