<svg width="109" height="13" viewBox="0 0 109 13" fill="none" xmlns="http://www.w3.org/2000/svg">
<path d="M7.448 0.948078C7.616 0.948078 7.73734 1.00874 7.812 1.13008C7.896 1.25141 7.938 1.39141 7.938 1.55008C7.938 1.70874 7.896 1.84874 7.812 1.97008C7.73734 2.09141 7.616 2.15208 7.448 2.15208H5.208V3.03408C5.208 3.50074 5.28267 3.90208 5.432 4.23808C5.59067 4.56475 5.838 4.87275 6.174 5.16208C6.482 5.42341 6.776 5.66608 7.056 5.89008C7.34534 6.11408 7.59734 6.30541 7.812 6.46408C7.97067 6.57608 8.05001 6.71141 8.05001 6.87008C8.05934 7.02875 8.01267 7.17808 7.91 7.31808C7.81667 7.43941 7.686 7.52808 7.518 7.58408C7.35934 7.63075 7.20067 7.59341 7.042 7.47208C6.85534 7.33208 6.636 7.16408 6.384 6.96808C6.132 6.76275 5.85667 6.53875 5.558 6.29608C5.20334 6.00674 4.95134 5.77341 4.802 5.59608C4.662 5.40941 4.57334 5.23675 4.536 5.07808H4.522C4.48467 5.24608 4.38667 5.43274 4.228 5.63808C4.07867 5.83408 3.82667 6.07675 3.472 6.36608C3.17334 6.60875 2.87934 6.84208 2.59 7.06608C2.30067 7.29008 2.02067 7.50008 1.75 7.69608C1.59134 7.81741 1.428 7.85475 1.26 7.80808C1.10134 7.75208 0.980004 7.66341 0.896004 7.54208C0.793338 7.40208 0.742004 7.24808 0.742004 7.08008C0.742004 6.91208 0.826004 6.76741 0.994004 6.64608C1.29267 6.42208 1.596 6.19341 1.904 5.96008C2.22134 5.71741 2.534 5.46075 2.842 5.19008C3.178 4.90075 3.42067 4.59274 3.57 4.26608C3.72867 3.93941 3.808 3.54274 3.808 3.07608V2.15208H1.47C1.29267 2.15208 1.162 2.09141 1.078 1.97008C1.00334 1.84874 0.966004 1.70874 0.966004 1.55008C0.966004 1.39141 1.00334 1.25141 1.078 1.13008C1.162 1.00874 1.29267 0.948078 1.47 0.948078H7.448ZM10.444 0.108078C10.6213 0.108078 10.78 0.154745 10.92 0.248078C11.06 0.341412 11.13 0.490745 11.13 0.696078V8.98408C11.13 9.18941 11.06 9.33874 10.92 9.43208C10.78 9.52541 10.6213 9.57208 10.444 9.57208C10.2573 9.57208 10.094 9.52541 9.95401 9.43208C9.81401 9.33874 9.74401 9.18941 9.74401 8.98408V4.74208H7.728C7.55067 4.74208 7.42 4.68141 7.336 4.56008C7.26134 4.43875 7.224 4.29875 7.224 4.14008C7.224 3.97208 7.26134 3.83208 7.336 3.72008C7.42 3.59874 7.55067 3.53808 7.728 3.53808H9.74401V0.696078C9.74401 0.490745 9.81401 0.341412 9.95401 0.248078C10.094 0.154745 10.2573 0.108078 10.444 0.108078ZM3.612 8.39608C3.78934 8.39608 3.948 8.44275 4.088 8.53608C4.23734 8.62941 4.312 8.77875 4.312 8.98408V11.3501C4.312 11.4527 4.33067 11.5227 4.368 11.5601C4.41467 11.6067 4.494 11.6301 4.606 11.6301H10.962C11.1393 11.6301 11.2653 11.6907 11.34 11.8121C11.424 11.9334 11.466 12.0781 11.466 12.2461C11.466 12.4047 11.424 12.5447 11.34 12.6661C11.2653 12.7874 11.1393 12.8481 10.962 12.8481H3.976C3.56534 12.8481 3.28067 12.7734 3.122 12.6241C2.97267 12.4747 2.898 12.1994 2.898 11.7981V8.98408C2.898 8.77875 2.968 8.62941 3.108 8.53608C3.25734 8.44275 3.42534 8.39608 3.612 8.39608Z" fill="#00C4DF"/>
<path d="M18.7342 1.06008C19.1449 1.06008 19.4249 1.13474 19.5742 1.28408C19.7329 1.43341 19.8122 1.70874 19.8122 2.11008V3.69208C19.8122 4.08408 19.7889 4.43875 19.7422 4.75608C19.6955 5.06408 19.6069 5.35808 19.4762 5.63808C19.3455 5.91808 19.1635 6.19341 18.9302 6.46408C18.6969 6.72541 18.3935 7.00541 18.0202 7.30408C17.6562 7.59341 17.2129 7.91074 16.6902 8.25608C16.1675 8.60141 15.5469 8.99341 14.8282 9.43208C14.6695 9.52541 14.5109 9.54408 14.3522 9.48808C14.1935 9.42274 14.0675 9.32475 13.9742 9.19408C13.8809 9.06341 13.8342 8.90941 13.8342 8.73208C13.8435 8.55475 13.9275 8.41475 14.0862 8.31208C14.7489 7.91075 15.3135 7.56075 15.7802 7.26208C16.2562 6.95408 16.6529 6.67875 16.9702 6.43608C17.2875 6.18408 17.5395 5.95541 17.7262 5.75008C17.9222 5.53541 18.0715 5.32541 18.1742 5.12008C18.2769 4.90541 18.3422 4.68141 18.3702 4.44808C18.3982 4.20541 18.4122 3.93475 18.4122 3.63608V2.55808C18.4122 2.45541 18.3889 2.38541 18.3422 2.34808C18.3049 2.30141 18.2302 2.27808 18.1182 2.27808H14.4782C14.3009 2.27808 14.1702 2.21741 14.0862 2.09608C14.0115 1.97474 13.9742 1.83474 13.9742 1.67608C13.9742 1.50808 14.0115 1.36341 14.0862 1.24208C14.1702 1.12074 14.3009 1.06008 14.4782 1.06008H18.7342ZM23.0742 0.108078C23.2609 0.108078 23.4242 0.154745 23.5642 0.248078C23.7135 0.341412 23.7882 0.490745 23.7882 0.696078V11.6161C23.7882 11.8214 23.7135 11.9707 23.5642 12.0641C23.4242 12.1574 23.2609 12.2041 23.0742 12.2041C22.8969 12.2041 22.7335 12.1574 22.5842 12.0641C22.4442 11.9707 22.3742 11.8214 22.3742 11.6161V0.696078C22.3742 0.490745 22.4442 0.341412 22.5842 0.248078C22.7335 0.154745 22.8969 0.108078 23.0742 0.108078Z" fill="#00C4DF"/>
<path d="M29.8524 0.0800781C30.039 0.0800781 30.2024 0.126745 30.3424 0.220078C30.4824 0.313411 30.5524 0.462745 30.5524 0.668078V1.84408H32.9324C33.1004 1.84408 33.2217 1.90474 33.2964 2.02608C33.3804 2.14741 33.4224 2.28741 33.4224 2.44608C33.4224 2.60475 33.3804 2.74474 33.2964 2.86608C33.2217 2.98741 33.1004 3.04808 32.9324 3.04808H30.5524V3.91608C30.5524 4.21474 30.5664 4.47608 30.5944 4.70008C30.6317 4.92408 30.6877 5.13408 30.7624 5.33008C30.837 5.52608 30.9397 5.71741 31.0704 5.90408C31.2104 6.09075 31.3877 6.28675 31.6024 6.49208C31.901 6.79075 32.1904 7.07075 32.4704 7.33208C32.7504 7.59341 33.0117 7.82674 33.2544 8.03208C33.385 8.15341 33.4364 8.30274 33.4084 8.48008C33.3897 8.64808 33.3244 8.78808 33.2124 8.90008C33.1004 9.01208 32.965 9.08208 32.8064 9.11008C32.6477 9.13808 32.503 9.09141 32.3724 8.97008C32.167 8.79275 31.943 8.58741 31.7004 8.35408C31.4577 8.11141 31.1917 7.85008 30.9024 7.57008C30.7064 7.37408 30.543 7.20608 30.4124 7.06608C30.2817 6.91675 30.179 6.79075 30.1044 6.68808C30.0297 6.58541 29.9737 6.49675 29.9364 6.42208C29.899 6.34741 29.8757 6.27274 29.8664 6.19808H29.8524C29.8337 6.28208 29.8057 6.36608 29.7684 6.45008C29.7404 6.52475 29.689 6.61808 29.6144 6.73008C29.5397 6.83275 29.437 6.95875 29.3064 7.10808C29.185 7.24808 29.0217 7.41608 28.8164 7.61208C28.5364 7.88274 28.261 8.14874 27.9904 8.41008C27.729 8.66208 27.449 8.91408 27.1504 9.16608C27.001 9.28741 26.8424 9.32941 26.6744 9.29208C26.5064 9.24541 26.371 9.16141 26.2684 9.04008C26.1564 8.90941 26.0957 8.76474 26.0864 8.60608C26.0864 8.43808 26.1564 8.29341 26.2964 8.17208C26.623 7.90141 26.931 7.63075 27.2204 7.36008C27.5097 7.08008 27.8037 6.79075 28.1024 6.49208C28.3077 6.28675 28.4804 6.09075 28.6204 5.90408C28.7604 5.71741 28.8677 5.52608 28.9424 5.33008C29.017 5.13408 29.0684 4.92408 29.0964 4.70008C29.1337 4.47608 29.1524 4.21474 29.1524 3.91608V3.04808H26.7024C26.525 3.04808 26.3944 2.98741 26.3104 2.86608C26.2357 2.74474 26.1984 2.60475 26.1984 2.44608C26.1984 2.28741 26.2357 2.14741 26.3104 2.02608C26.3944 1.90474 26.525 1.84408 26.7024 1.84408H29.1524V0.668078C29.1524 0.462745 29.2224 0.313411 29.3624 0.220078C29.5117 0.126745 29.675 0.0800781 29.8524 0.0800781ZM35.2284 0.108078C35.415 0.108078 35.5784 0.154745 35.7184 0.248078C35.8584 0.341412 35.9284 0.490745 35.9284 0.696078V4.33608H37.4684C37.655 4.33608 37.7857 4.39675 37.8604 4.51808C37.9444 4.63008 37.9864 4.77008 37.9864 4.93808C37.9864 5.10608 37.9444 5.25074 37.8604 5.37208C37.7857 5.49341 37.655 5.55408 37.4684 5.55408H35.9284V11.6161C35.9284 11.8214 35.8584 11.9707 35.7184 12.0641C35.5784 12.1574 35.415 12.2041 35.2284 12.2041C35.0417 12.2041 34.8784 12.1574 34.7384 12.0641C34.5984 11.9707 34.5284 11.8214 34.5284 11.6161V0.696078C34.5284 0.490745 34.5984 0.341412 34.7384 0.248078C34.8784 0.154745 35.0417 0.108078 35.2284 0.108078Z" fill="#00C4DF"/>
<path d="M49.1746 0.948078C49.3426 0.948078 49.4639 1.00874 49.5386 1.13008C49.6226 1.25141 49.6646 1.39141 49.6646 1.55008C49.6646 1.70874 49.6226 1.84874 49.5386 1.97008C49.4639 2.09141 49.3426 2.15208 49.1746 2.15208H46.9346V3.03408C46.9346 3.50074 47.0092 3.90208 47.1586 4.23808C47.3172 4.56475 47.5646 4.87275 47.9006 5.16208C48.2086 5.42341 48.5026 5.66608 48.7826 5.89008C49.0719 6.11408 49.3239 6.30541 49.5386 6.46408C49.6972 6.57608 49.7766 6.71141 49.7766 6.87008C49.7859 7.02875 49.7392 7.17808 49.6366 7.31808C49.5432 7.43941 49.4126 7.52808 49.2446 7.58408C49.0859 7.63075 48.9272 7.59341 48.7686 7.47208C48.5819 7.33208 48.3626 7.16408 48.1106 6.96808C47.8586 6.76275 47.5832 6.53875 47.2846 6.29608C46.9299 6.00674 46.6779 5.77341 46.5286 5.59608C46.3886 5.40941 46.2999 5.23675 46.2626 5.07808H46.2486C46.2112 5.24608 46.1132 5.43274 45.9546 5.63808C45.8052 5.83408 45.5532 6.07675 45.1986 6.36608C44.8999 6.60875 44.6059 6.84208 44.3166 7.06608C44.0272 7.29008 43.7472 7.50008 43.4766 7.69608C43.3179 7.81741 43.1546 7.85475 42.9866 7.80808C42.8279 7.75208 42.7066 7.66341 42.6226 7.54208C42.5199 7.40208 42.4686 7.24808 42.4686 7.08008C42.4686 6.91208 42.5526 6.76741 42.7206 6.64608C43.0192 6.42208 43.3226 6.19341 43.6306 5.96008C43.9479 5.71741 44.2606 5.46075 44.5686 5.19008C44.9046 4.90075 45.1472 4.59274 45.2966 4.26608C45.4552 3.93941 45.5346 3.54274 45.5346 3.07608V2.15208H43.1966C43.0192 2.15208 42.8886 2.09141 42.8046 1.97008C42.7299 1.84874 42.6926 1.70874 42.6926 1.55008C42.6926 1.39141 42.7299 1.25141 42.8046 1.13008C42.8886 1.00874 43.0192 0.948078 43.1966 0.948078H49.1746ZM52.1706 0.108078C52.3479 0.108078 52.5066 0.154745 52.6466 0.248078C52.7866 0.341412 52.8566 0.490745 52.8566 0.696078V8.98408C52.8566 9.18941 52.7866 9.33874 52.6466 9.43208C52.5066 9.52541 52.3479 9.57208 52.1706 9.57208C51.9839 9.57208 51.8206 9.52541 51.6806 9.43208C51.5406 9.33874 51.4706 9.18941 51.4706 8.98408V4.74208H49.4546C49.2772 4.74208 49.1466 4.68141 49.0626 4.56008C48.9879 4.43875 48.9506 4.29875 48.9506 4.14008C48.9506 3.97208 48.9879 3.83208 49.0626 3.72008C49.1466 3.59874 49.2772 3.53808 49.4546 3.53808H51.4706V0.696078C51.4706 0.490745 51.5406 0.341412 51.6806 0.248078C51.8206 0.154745 51.9839 0.108078 52.1706 0.108078ZM45.3386 8.39608C45.5159 8.39608 45.6746 8.44275 45.8146 8.53608C45.9639 8.62941 46.0386 8.77875 46.0386 8.98408V11.3501C46.0386 11.4527 46.0572 11.5227 46.0946 11.5601C46.1412 11.6067 46.2206 11.6301 46.3326 11.6301H52.6886C52.8659 11.6301 52.9919 11.6907 53.0666 11.8121C53.1506 11.9334 53.1926 12.0781 53.1926 12.2461C53.1926 12.4047 53.1506 12.5447 53.0666 12.6661C52.9919 12.7874 52.8659 12.8481 52.6886 12.8481H45.7026C45.2919 12.8481 45.0072 12.7734 44.8486 12.6241C44.6992 12.4747 44.6246 12.1994 44.6246 11.7981V8.98408C44.6246 8.77875 44.6946 8.62941 44.8346 8.53608C44.9839 8.44275 45.1519 8.39608 45.3386 8.39608Z" fill="#00C4DF"/>
<path d="M64.0308 0.598078C64.4414 0.598078 64.7214 0.672745 64.8708 0.822078C65.0294 0.971411 65.1088 1.24674 65.1088 1.64808V4.29408C65.1088 4.69541 65.0294 4.97075 64.8708 5.12008C64.7214 5.26941 64.4414 5.34408 64.0308 5.34408H57.6468C57.2361 5.34408 56.9561 5.26941 56.8068 5.12008C56.6574 4.97075 56.5828 4.69541 56.5828 4.29408V1.64808C56.5828 1.24674 56.6574 0.971411 56.8068 0.822078C56.9561 0.672745 57.2361 0.598078 57.6468 0.598078H64.0308ZM58.2628 1.77408C58.1508 1.77408 58.0714 1.79741 58.0248 1.84408C57.9874 1.88141 57.9688 1.95608 57.9688 2.06808V3.87408C57.9688 3.98608 57.9874 4.06541 58.0248 4.11208C58.0714 4.14941 58.1508 4.16808 58.2628 4.16808H63.4148C63.5268 4.16808 63.6014 4.14941 63.6388 4.11208C63.6854 4.06541 63.7088 3.98608 63.7088 3.87408V2.06808C63.7088 1.95608 63.6854 1.88141 63.6388 1.84408C63.6014 1.79741 63.5268 1.77408 63.4148 1.77408H58.2628ZM66.2288 6.61808C66.3968 6.61808 66.5181 6.67874 66.5928 6.80008C66.6768 6.91208 66.7188 7.04741 66.7188 7.20608C66.7188 7.36474 66.6768 7.50474 66.5928 7.62608C66.5181 7.73808 66.3968 7.79408 66.2288 7.79408H61.6928V9.75408C61.6928 9.94074 61.6228 10.0761 61.4828 10.1601C61.3521 10.2441 61.1888 10.2861 60.9928 10.2861C60.8061 10.2861 60.6428 10.2441 60.5028 10.1601C60.3721 10.0761 60.3068 9.94074 60.3068 9.75408V7.79408H55.4488C55.2808 7.79408 55.1548 7.73808 55.0708 7.62608C54.9961 7.50474 54.9588 7.36474 54.9588 7.20608C54.9588 7.04741 54.9961 6.91208 55.0708 6.80008C55.1548 6.67874 55.2808 6.61808 55.4488 6.61808H66.2288ZM57.2548 8.92808C57.4414 8.92808 57.6048 8.97474 57.7448 9.06808C57.8848 9.16141 57.9548 9.31074 57.9548 9.51608V11.4201C57.9548 11.6161 58.0528 11.7141 58.2488 11.7141H64.8708C65.0388 11.7141 65.1601 11.7701 65.2348 11.8821C65.3188 12.0034 65.3608 12.1434 65.3608 12.3021C65.3608 12.4607 65.3188 12.6007 65.2348 12.7221C65.1601 12.8434 65.0388 12.9041 64.8708 12.9041H57.6188C57.2081 12.9041 56.9281 12.8294 56.7788 12.6801C56.6294 12.5307 56.5548 12.2554 56.5548 11.8541V9.51608C56.5548 9.31074 56.6248 9.16141 56.7648 9.06808C56.9048 8.97474 57.0681 8.92808 57.2548 8.92808Z" fill="#00C4DF"/>
<path d="M75.2609 0.934078C75.6716 0.934078 75.9516 1.00874 76.1009 1.15808C76.2596 1.30741 76.3389 1.58274 76.3389 1.98408V3.88808C76.3389 4.28008 76.2596 4.55075 76.1009 4.70008C75.9516 4.84941 75.6716 4.92408 75.2609 4.92408H73.2169C73.0209 4.92408 72.9229 5.02208 72.9229 5.21808V6.35208C72.9229 6.46408 72.9463 6.54341 72.9929 6.59008C73.0396 6.62741 73.1143 6.64608 73.2169 6.64608C73.8329 6.64608 74.4583 6.62741 75.0929 6.59008C75.7276 6.55275 76.2923 6.49675 76.7869 6.42208C76.9456 6.40341 77.0716 6.44075 77.1649 6.53408C77.2583 6.62741 77.3143 6.75808 77.3329 6.92608C77.3516 7.08474 77.3283 7.23408 77.2629 7.37408C77.2069 7.50474 77.0996 7.57941 76.9409 7.59808C76.5863 7.66341 76.0449 7.71941 75.3169 7.76608C74.5889 7.80341 73.7023 7.82208 72.6569 7.82208C72.2463 7.82208 71.9616 7.74741 71.8029 7.59808C71.6536 7.44875 71.5789 7.17808 71.5789 6.78608V4.85408C71.5789 4.45275 71.6536 4.17741 71.8029 4.02808C71.9616 3.87875 72.2463 3.80408 72.6569 3.80408H74.7149C74.9109 3.80408 75.0089 3.71074 75.0089 3.52408V2.41808C75.0089 2.30608 74.9856 2.23141 74.9389 2.19408C74.8923 2.14741 74.8176 2.12408 74.7149 2.12408H72.0409C71.8823 2.12408 71.7656 2.06808 71.6909 1.95608C71.6163 1.83474 71.5789 1.69474 71.5789 1.53608C71.5789 1.37741 71.6163 1.23741 71.6909 1.11608C71.7656 0.994745 71.8823 0.934078 72.0409 0.934078H75.2609ZM81.5049 0.108078C81.6729 0.108078 81.8223 0.154745 81.9529 0.248078C82.0929 0.332078 82.1629 0.467411 82.1629 0.654078V9.02608C82.1629 9.21274 82.0929 9.35274 81.9529 9.44608C81.8223 9.53008 81.6729 9.57208 81.5049 9.57208C81.3463 9.57208 81.1969 9.53008 81.0569 9.44608C80.9263 9.35274 80.8609 9.21274 80.8609 9.02608V0.654078C80.8609 0.467411 80.9263 0.332078 81.0569 0.248078C81.1969 0.154745 81.3463 0.108078 81.5049 0.108078ZM78.9989 0.178078C79.1576 0.178078 79.3023 0.224745 79.4329 0.318078C79.5729 0.402078 79.6429 0.537412 79.6429 0.724078V8.43808C79.6429 8.62474 79.5729 8.76474 79.4329 8.85808C79.3023 8.94208 79.1576 8.98408 78.9989 8.98408C78.8309 8.98408 78.6769 8.94208 78.5369 8.85808C78.4063 8.76474 78.3409 8.62474 78.3409 8.43808V4.68608H77.3189C77.1603 4.68608 77.0436 4.63008 76.9689 4.51808C76.8943 4.39675 76.8569 4.25208 76.8569 4.08408C76.8569 3.90675 76.8943 3.76208 76.9689 3.65008C77.0436 3.53808 77.1603 3.48208 77.3189 3.48208H78.3409V0.724078C78.3409 0.537412 78.4063 0.402078 78.5369 0.318078C78.6769 0.224745 78.8309 0.178078 78.9989 0.178078ZM74.3509 8.81608C74.5283 8.81608 74.6869 8.86274 74.8269 8.95608C74.9763 9.04941 75.0509 9.19875 75.0509 9.40408V11.3501C75.0509 11.4527 75.0696 11.5227 75.1069 11.5601C75.1536 11.6067 75.2329 11.6301 75.3449 11.6301H81.9949C82.1723 11.6301 82.2983 11.6907 82.3729 11.8121C82.4569 11.9334 82.4989 12.0781 82.4989 12.2461C82.4989 12.4047 82.4569 12.5447 82.3729 12.6661C82.2983 12.7874 82.1723 12.8481 81.9949 12.8481H74.7149C74.3043 12.8481 74.0196 12.7734 73.8609 12.6241C73.7116 12.4747 73.6369 12.1994 73.6369 11.7981V9.40408C73.6369 9.19875 73.7069 9.04941 73.8469 8.95608C73.9963 8.86274 74.1643 8.81608 74.3509 8.81608Z" fill="#00C4DF"/>
<path d="M93.5891 0.892078C93.7571 0.892078 93.8785 0.952745 93.9531 1.07408C94.0371 1.19541 94.0791 1.33541 94.0791 1.49408C94.0791 1.65274 94.0371 1.79274 93.9531 1.91408C93.8785 2.02608 93.7571 2.08208 93.5891 2.08208H87.2051C87.0931 2.08208 87.0138 2.10541 86.9671 2.15208C86.9298 2.19874 86.9111 2.27341 86.9111 2.37608V3.73408H93.4491C93.6171 3.73408 93.7385 3.79474 93.8131 3.91608C93.8971 4.02808 93.9391 4.15874 93.9391 4.30808C93.9391 4.46674 93.8971 4.60208 93.8131 4.71408C93.7385 4.82608 93.6171 4.88208 93.4491 4.88208H86.9111V6.25408C86.9111 6.35675 86.9298 6.43141 86.9671 6.47808C87.0138 6.52474 87.0931 6.54808 87.2051 6.54808H93.8271C93.9951 6.54808 94.1165 6.60875 94.1911 6.73008C94.2751 6.84208 94.3171 6.97741 94.3171 7.13608C94.3171 7.29475 94.2751 7.43475 94.1911 7.55608C94.1165 7.66808 93.9951 7.72408 93.8271 7.72408H86.6171C86.2065 7.72408 85.9218 7.65408 85.7631 7.51408C85.6138 7.36475 85.5391 7.08941 85.5391 6.68808V1.94208C85.5391 1.54074 85.6138 1.26541 85.7631 1.11608C85.9218 0.966745 86.2065 0.892078 86.6171 0.892078H93.5891ZM95.2131 9.78208C95.3811 9.78208 95.5025 9.84274 95.5771 9.96408C95.6611 10.0761 95.7031 10.2161 95.7031 10.3841C95.7031 10.5427 95.6611 10.6827 95.5771 10.8041C95.5025 10.9254 95.3811 10.9861 95.2131 10.9861H84.4331C84.2651 10.9861 84.1391 10.9254 84.0551 10.8041C83.9805 10.6827 83.9431 10.5427 83.9431 10.3841C83.9431 10.2161 83.9805 10.0761 84.0551 9.96408C84.1391 9.84274 84.2651 9.78208 84.4331 9.78208H95.2131Z" fill="#00C4DF"/>
<path d="M101.991 1.04608C102.402 1.04608 102.682 1.12074 102.831 1.27008C102.99 1.41941 103.069 1.69474 103.069 2.09608V3.86008C103.069 4.28008 103.041 4.65808 102.985 4.99408C102.939 5.32074 102.85 5.62874 102.719 5.91808C102.589 6.19808 102.407 6.47341 102.173 6.74408C101.94 7.00541 101.637 7.28074 101.263 7.57008C100.899 7.85008 100.456 8.15341 99.9333 8.48008C99.4107 8.80674 98.7993 9.17541 98.0993 9.58608C97.95 9.67008 97.796 9.68875 97.6373 9.64208C97.4787 9.59541 97.3527 9.49741 97.2593 9.34808C97.166 9.20808 97.1287 9.04941 97.1473 8.87208C97.166 8.69474 97.2547 8.55941 97.4133 8.46608C98.1413 8.04608 98.7527 7.68674 99.2473 7.38808C99.742 7.08008 100.148 6.80475 100.465 6.56208C100.792 6.31941 101.039 6.09074 101.207 5.87608C101.385 5.66141 101.511 5.43274 101.585 5.19008L97.4833 5.42808C97.3153 5.44674 97.1893 5.40008 97.1053 5.28808C97.0213 5.16674 96.97 5.02208 96.9513 4.85408C96.942 4.70475 96.97 4.56475 97.0353 4.43408C97.11 4.30341 97.236 4.23341 97.4133 4.22408L101.711 4.02808V2.54408C101.711 2.43208 101.688 2.35741 101.641 2.32008C101.595 2.27341 101.52 2.25008 101.417 2.25008H97.7913C97.614 2.25008 97.4833 2.18941 97.3993 2.06808C97.3247 1.94674 97.2873 1.80674 97.2873 1.64808C97.2873 1.48941 97.3247 1.34941 97.3993 1.22808C97.4833 1.10674 97.614 1.04608 97.7913 1.04608H101.991ZM105.939 0.108078C106.126 0.108078 106.289 0.154745 106.429 0.248078C106.569 0.341412 106.639 0.490745 106.639 0.696078V4.33608H108.179C108.366 4.33608 108.497 4.39675 108.571 4.51808C108.655 4.63008 108.697 4.77008 108.697 4.93808C108.697 5.10608 108.655 5.25074 108.571 5.37208C108.497 5.49341 108.366 5.55408 108.179 5.55408H106.639V11.6161C106.639 11.8214 106.569 11.9707 106.429 12.0641C106.289 12.1574 106.126 12.2041 105.939 12.2041C105.753 12.2041 105.589 12.1574 105.449 12.0641C105.309 11.9707 105.239 11.8214 105.239 11.6161V0.696078C105.239 0.490745 105.309 0.341412 105.449 0.248078C105.589 0.154745 105.753 0.108078 105.939 0.108078Z" fill="#00C4DF"/>
</svg>
